<?xml version="1.0" encoding="utf-8"?>
<!-- Generator: Adobe Illustrator 18.0.0, SVG Export Plug-In . SVG Version: 6.00 Build 0)  -->
<!DOCTYPE svg PUBLIC "-//W3C//DTD SVG 1.1//EN" "http://www.w3.org/Graphics/SVG/1.1/DTD/svg11.dtd">
<svg version="1.1" id="activecampaign" xmlns="http://www.w3.org/2000/svg" xmlns:xlink="http://www.w3.org/1999/xlink" x="0px"
	 y="0px" viewBox="0 0 40 40" style="enable-background:new 0 0 40 40;" xml:space="preserve">
<style type="text/css">
	.Background{fill:#2B61AE;}
	.st0{fill:#FFFFFF;}
</style>
<rect class="Background" width="40" height="40"/>
<path class="st0" d="M31.4,22.1c0.8-0.6,1-1.3,1-2c0-0.7,0,0.7,0-0.3c0-0.7-0.4-1.3-1-1.8c-0.5-0.4-20.1-14-20.1-14s0,1.8,0,2.9
	c0,1,0.5,1.3,1.2,1.8C13.6,9.5,28.8,20,28.8,20S13.4,30.7,12.5,31.3c-1,0.6-1.1,1.1-1.1,1.9c0,0.8,0,2.7,0,2.7S30.6,22.7,31.4,22.1z
	"/>
<path class="st0" d="M11.4,13.6c0,0.8,0,2,0,2s6,4.2,7.2,5c1,0.7,1.8,0.6,2.9-0.1c0.6-0.5,1.2-0.9,1.2-0.9s-8.8-6.1-9.7-6.7
	C12.2,12.4,11.4,12.7,11.4,13.6z"/>
</svg>
