<?xml version="1.0" encoding="utf-8"?>
<!-- Generator: Adobe Illustrator 18.0.0, SVG Export Plug-In . SVG Version: 6.00 Build 0)  -->
<!DOCTYPE svg PUBLIC "-//W3C//DTD SVG 1.1//EN" "http://www.w3.org/Graphics/SVG/1.1/DTD/svg11.dtd">
<svg version="1.1" id="Layer_1" xmlns="http://www.w3.org/2000/svg" xmlns:xlink="http://www.w3.org/1999/xlink" x="0px" y="0px"
	 viewBox="0 0 40 40" style="enable-background:new 0 0 40 40;" xml:space="preserve">
<style type="text/css">
	.st0{fill:#75C044;}
	.st1{fill:#FFFFFF;}
</style>
<rect class="st0" width="40" height="40"/>
<g>
	<path class="st1" d="M30.505,7.995c0,0,0,6.139-4.298,6.207c0,0-3.956,0.545-4.023-6.207H20h-2.183
		c-0.068,6.752-4.024,6.207-4.024,6.207c-4.297-0.068-4.297-6.207-4.297-6.207H3.562V36.37H20h16.438V7.995H30.505z M13.93,32.413
		H9.563v-4.366h4.366V32.413z M13.93,24.297H9.563v-4.366h4.366V24.297z M22.184,32.549H20h-2.183v-4.365H20h2.184V32.549z
		 M22.251,24.364H20h-2.251v-4.433H20h2.251V24.364z M27.708,30.708l-1.638,1.705v-4.366h4.365L27.708,30.708z M30.435,24.297H26.07
		v-4.366h4.365V24.297z"/>
	<path class="st1" d="M15.771,10.553c0,0.998-0.886,1.807-1.978,1.807l0,0c-1.093,0-1.979-0.809-1.979-1.807V5.437
		c0-0.999,0.886-1.808,1.979-1.808l0,0c1.092,0,1.978,0.809,1.978,1.808V10.553z"/>
	<path class="st1" d="M28.049,10.553c0,0.998-0.886,1.807-1.979,1.807l0,0c-1.092,0-1.977-0.809-1.977-1.807V5.437
		c0-0.999,0.886-1.808,1.977-1.808l0,0c1.093,0,1.979,0.809,1.979,1.808V10.553z"/>
</g>
</svg>
