<?xml version="1.0" encoding="utf-8"?>
<!-- Generator: Adobe Illustrator 16.0.0, SVG Export Plug-In . SVG Version: 6.00 Build 0)  -->
<!DOCTYPE svg PUBLIC "-//W3C//DTD SVG 1.1//EN" "http://www.w3.org/Graphics/SVG/1.1/DTD/svg11.dtd">
<svg version="1.1" id="Layer_1" xmlns="http://www.w3.org/2000/svg" xmlns:xlink="http://www.w3.org/1999/xlink" x="0px" y="0px"
	 width="40px" height="40px" viewBox="0 0 40 40" style="enable-background:new 0 0 40 40;" xml:space="preserve">
<style type="text/css">
<![CDATA[
	.st0{fill:#FFFFFF;}
	.st1{fill:#010101;}
]]>
</style>
<rect class="st1" width="40" height="40"/>
<path id="Amazon" class="st0" d="M22.893,12.757c-0.767,0.061-1.652,0.12-2.536,0.238c-1.358,0.175-2.715,0.413-3.835,0.943
	c-2.183,0.889-3.659,2.778-3.659,5.556c0,3.487,2.243,5.258,5.075,5.258c0.944,0,1.711-0.117,2.418-0.293
	c1.121-0.354,2.063-1.005,3.186-2.187c0.65,0.888,0.826,1.3,1.946,2.244c0.296,0.118,0.592,0.118,0.826-0.058
	c0.708-0.592,1.946-1.654,2.596-2.245c0.295-0.239,0.236-0.592,0.061-0.89c-0.65-0.826-1.299-1.535-1.299-3.128v-5.32
	c0-2.248,0.175-4.315-1.477-5.85c-1.354-1.243-3.479-1.715-5.13-1.715c-0.238,0-0.473,0-0.708,0
	c-3.01,0.178-6.194,1.476-6.904,5.201c-0.117,0.471,0.238,0.649,0.474,0.71l3.303,0.414c0.355-0.062,0.531-0.356,0.588-0.653
	c0.296-1.298,1.358-1.948,2.539-2.067c0.058,0,0.117,0,0.235,0c0.707,0,1.473,0.297,1.888,0.885
	c0.471,0.711,0.413,1.657,0.413,2.483V12.757L22.893,12.757z M22.893,16.186c0,1.36,0.058,2.422-0.65,3.604
	c-0.413,0.825-1.119,1.358-1.886,1.535c-0.119,0-0.295,0.063-0.473,0.063c-1.297,0-2.066-1.005-2.066-2.483
	c0-1.889,1.123-2.777,2.539-3.191c0.767-0.178,1.65-0.236,2.536-0.236V16.186z M33.76,32.775c1.441-1.22,2.05-3.435,2.082-4.591
	V27.99c0-0.257-0.063-0.448-0.126-0.544c-0.289-0.353-2.407-0.676-4.232-0.129c-0.513,0.163-0.962,0.385-1.379,0.673
	c-0.319,0.228-0.257,0.515,0.063,0.483c0.354-0.065,0.803-0.096,1.315-0.162c1.123-0.094,2.435-0.127,2.758,0.288
	c0.445,0.545-0.515,2.923-0.933,3.949C33.183,32.872,33.47,33,33.76,32.775z M4.306,28.185c4.134,3.757,9.582,6.004,15.673,6.004
	c3.781,0,8.139-1.062,11.505-3.083c0.45-0.256,0.897-0.545,1.313-0.867c0.579-0.415,0.065-1.061-0.512-0.804
	c-0.254,0.098-0.544,0.227-0.801,0.323c-3.688,1.445-7.563,2.119-11.153,2.119c-5.706,0-11.217-1.574-15.672-4.175
	C4.241,27.48,3.952,27.896,4.306,28.185z"/>
</svg>
