<?xml version="1.0" encoding="utf-8"?>
<!-- Generator: Adobe Illustrator 16.0.0, SVG Export Plug-In . SVG Version: 6.00 Build 0)  -->
<!DOCTYPE svg PUBLIC "-//W3C//DTD SVG 1.1//EN" "http://www.w3.org/Graphics/SVG/1.1/DTD/svg11.dtd">
<svg version="1.1" id="Layer_1" xmlns="http://www.w3.org/2000/svg" xmlns:xlink="http://www.w3.org/1999/xlink" x="0px" y="0px"
	 width="40px" height="40px" viewBox="0 0 40 40" style="enable-background:new 0 0 40 40;" xml:space="preserve">
<style type="text/css">
<![CDATA[
	.st0{fill:#FFFFFF;}
	.st1{fill:#A0BF3C;}
]]>
</style>
<rect class="st1" width="40" height="40"/>
<g id="androd">
	<path class="st0" d="M24.209,7.692l1.494-2.17c0.088-0.128,0.066-0.298-0.051-0.378c-0.113-0.079-0.281-0.04-0.369,0.089
		L23.73,7.487c-1.023-0.403-2.16-0.628-3.359-0.628c-1.197,0-2.334,0.225-3.358,0.628L15.46,5.233
		c-0.089-0.129-0.255-0.168-0.371-0.089c-0.116,0.081-0.138,0.249-0.05,0.378l1.495,2.17c-2.376,1.106-4.044,3.208-4.256,5.66
		h16.186C28.252,10.9,26.586,8.798,24.209,7.692"/>
	<path class="st1" d="M16.991,11.113c-0.495,0-0.896-0.4-0.896-0.896c0-0.495,0.399-0.895,0.896-0.895
		c0.494,0,0.895,0.4,0.895,0.895C17.886,10.712,17.485,11.113,16.991,11.113"/>
	<path class="st1" d="M23.752,11.113c-0.494,0-0.895-0.4-0.895-0.896c0-0.495,0.4-0.895,0.895-0.895c0.496,0,0.895,0.4,0.895,0.895
		C24.646,10.712,24.248,11.113,23.752,11.113"/>
	<path class="st0" d="M11.24,23.58c0,0.997-0.809,1.806-1.806,1.806l0,0c-0.997,0-1.806-0.809-1.806-1.806v-7.303
		c0-0.997,0.809-1.806,1.806-1.806l0,0c0.997,0,1.806,0.809,1.806,1.806V23.58z"/>
	<path class="st0" d="M12.279,14.527v13.189c0,0.784,0.635,1.42,1.418,1.42h1.678v4.058c0,0.998,0.809,1.806,1.806,1.806
		s1.806-0.808,1.806-1.806v-4.058h2.77v4.058c0,0.998,0.811,1.806,1.807,1.806s1.805-0.808,1.805-1.806v-4.058h1.68
		c0.781,0,1.418-0.636,1.418-1.42V14.527H12.279z"/>
	<path class="st0" d="M29.504,23.58c0,0.997,0.809,1.806,1.805,1.806l0,0c0.996,0,1.807-0.809,1.807-1.806v-7.303
		c0-0.997-0.811-1.806-1.807-1.806l0,0c-0.996,0-1.805,0.809-1.805,1.806V23.58z"/>
</g>
</svg>
