<?xml version="1.0" encoding="utf-8"?>
<!-- Generator: Adobe Illustrator 16.0.0, SVG Export Plug-In . SVG Version: 6.00 Build 0)  -->
<!DOCTYPE svg PUBLIC "-//W3C//DTD SVG 1.1//EN" "http://www.w3.org/Graphics/SVG/1.1/DTD/svg11.dtd">
<svg version="1.1" id="Layer_1" xmlns="http://www.w3.org/2000/svg" xmlns:xlink="http://www.w3.org/1999/xlink" x="0px" y="0px"
	 width="40px" height="40px" viewBox="0 0 40 40" style="enable-background:new 0 0 40 40;" xml:space="preserve">
<style type="text/css">
<![CDATA[
	.st0{fill:#FFFFFF;}
	.st1{fill:#010101;}
]]>
</style>
<rect class="st1" width="40" height="40"/>
<path id="Apple" class="st0" d="M20.39,7.334c1.075-1.264,2.894-2.205,4.392-2.268c0.192,1.755-0.513,3.514-1.553,4.781
	c-1.043,1.265-2.748,2.249-4.422,2.118C18.579,10.248,19.423,8.456,20.39,7.334z M28.92,31.284
	c-1.243,1.824-2.531,3.638-4.563,3.676c-2,0.038-2.641-1.188-4.922-1.188c-2.284,0-2.999,1.149-4.886,1.226
	c-1.962,0.074-3.454-1.971-4.708-3.787C7.28,27.496,5.324,20.709,7.954,16.128c1.303-2.274,3.637-3.714,6.165-3.753
	c1.927-0.036,3.747,1.303,4.922,1.303c1.179,0,3.388-1.607,5.709-1.371c0.972,0.04,3.699,0.393,5.451,2.964
	c-0.138,0.091-3.256,1.911-3.218,5.701c0.038,4.527,3.955,6.031,4.001,6.053C30.949,27.132,30.359,29.174,28.92,31.284z"/>
</svg>
