<?xml version="1.0" encoding="utf-8"?>
<!-- Generator: Adobe Illustrator 18.0.0, SVG Export Plug-In . SVG Version: 6.00 Build 0)  -->
<!DOCTYPE svg PUBLIC "-//W3C//DTD SVG 1.1//EN" "http://www.w3.org/Graphics/SVG/1.1/DTD/svg11.dtd">
<svg version="1.1" id="aweber" xmlns="http://www.w3.org/2000/svg" xmlns:xlink="http://www.w3.org/1999/xlink" x="0px" y="0px"
	 viewBox="0 0 40 40" style="enable-background:new 0 0 40 40;" xml:space="preserve">
<style type="text/css">
	.Background{fill:#1D75BC;}
	.st0{fill:#FFFFFF;}
</style>
<rect class="Background" width="40" height="40"/>
<g>
	<path class="st0" d="M16.9,14c0.4-3.4,1.3-6.8,2.7-10h-5.8c-1,2.7-1.7,5.5-2.1,8.3c-0.4,2.7-0.5,5.5-0.5,8.2c0,1.9,0.2,3.8,0.4,5.8
		c0.5,3.3,1.3,6.6,2.6,9.7h5.8c-2.1-4.5-3.3-9.4-3.5-14.3C16.5,19.1,16.6,16.6,16.9,14z"/>
</g>
<path class="st0" d="M24.1,6c-0.5,0.1-0.8,0.6-1.1,1c-1.7,2.4-3.1,5-3.8,7.9c-0.5,2.2-0.6,4.6-0.5,6.8c0.1,2.3,0.6,4.7,1.6,6.8
	c0.8,1.8,1.9,3.6,3,5.2c0.3,0.4,0.9,0.6,1.4,0.4c0.4-0.2,0.8-0.5,1-0.9c0.2-0.4,0-0.8-0.3-1.1c-1.4-1.9-2.6-4-3.3-6.2
	c-0.6-2-0.9-4.1-0.9-6.2c0-1.7,0.2-3.4,0.7-5.1c0.7-2.4,1.9-4.6,3.4-6.6c0.2-0.3,0.4-0.6,0.4-1c0-0.5-0.4-0.8-0.8-1
	C24.8,6,24.4,5.9,24.1,6L24.1,6z"/>
<path class="st0" d="M29.3,10c-0.2,0.1-0.3,0.2-0.4,0.3c-0.8,1-1.5,2.1-2,3.3c-0.5,1.2-0.9,2.5-1.1,3.8c-0.2,2-0.2,4.1,0.3,6.1
	c0.5,2.1,1.5,4,2.8,5.7c0.2,0.2,0.4,0.3,0.6,0.3c0.4,0,0.8-0.2,1-0.6c0.2-0.4-0.1-0.7-0.3-1c-0.8-1-1.4-2.2-1.9-3.3
	c-0.4-1.1-0.7-2.2-0.8-3.4c-0.2-2.3,0-4.7,1-6.8c0.5-1.2,1.2-2.2,1.9-3.2c0.2-0.2,0.2-0.6,0.1-0.8C30.2,10.1,29.7,9.8,29.3,10
	L29.3,10z"/>
</svg>
