<?xml version="1.0" encoding="utf-8"?>
<!-- Generator: Adobe Illustrator 18.0.0, SVG Export Plug-In . SVG Version: 6.00 Build 0)  -->
<!DOCTYPE svg PUBLIC "-//W3C//DTD SVG 1.1//EN" "http://www.w3.org/Graphics/SVG/1.1/DTD/svg11.dtd">
<svg version="1.1" id="coupon" xmlns="http://www.w3.org/2000/svg" xmlns:xlink="http://www.w3.org/1999/xlink" x="0px" y="0px"
	 viewBox="0 0 40 40" enable-background="new 0 0 40 40" xml:space="preserve">
<rect fill="#17A84A" width="40" height="40"/>
<g>
	<path fill="#FFFFFF" d="M28.8,24.2c0,2.6-0.8,4.7-2.3,6.3c-1.4,1.4-3.2,2.2-5.3,2.3v2.7h-2.5v-2.7c-2.3,0-4.1-0.6-5.5-1.9
		c-1.5-1.4-2.2-3.3-2.2-5.8h5.4c0,1.5,0.8,2.5,2.3,2.9v-6.2c-4.8-1-7.2-3.5-7.2-7.6c0-1.9,0.7-3.6,2.1-5C15,7.9,16.7,7.1,18.7,7V4.5
		h2.5V7c2,0.1,3.6,0.7,4.9,2c1.3,1.2,1.9,2.8,1.9,4.7h-5.3c-0.1-0.9-0.6-1.6-1.5-2.1v5.6c2,0.4,3.7,1.2,5.1,2.4
		C28,20.9,28.8,22.4,28.8,24.2z M18.7,16.4v-4.8c-1.2,0.5-1.8,1.4-1.8,2.7C16.9,15.6,17.5,16.3,18.7,16.4z M23.2,25.1
		c0-1.5-0.7-2.4-2-2.8v5.8C22.6,27.6,23.2,26.5,23.2,25.1z"/>
</g>
</svg>
