<?xml version="1.0" encoding="utf-8"?>
<!-- Generator: Adobe Illustrator 18.0.0, SVG Export Plug-In . SVG Version: 6.00 Build 0)  -->
<!DOCTYPE svg PUBLIC "-//W3C//DTD SVG 1.1//EN" "http://www.w3.org/Graphics/SVG/1.1/DTD/svg11.dtd">
<svg version="1.1" id="ebay" xmlns="http://www.w3.org/2000/svg" xmlns:xlink="http://www.w3.org/1999/xlink" x="0px" y="0px"
	 viewBox="0 0 40 40" style="enable-background:new 0 0 40 40;" xml:space="preserve">
<style type="text/css">
	.Background{fill:#F4B01C;}
	.st0{fill:#FFFFFF;}
</style>
<rect class="Background" width="40" height="40"/>
<g>
	<path class="st0" d="M27.1,16.4c0.6,0,1.3,0,1.9,0c0.9,1.8,1.8,3.7,2.8,5.5c0.9-1.8,1.8-3.7,2.7-5.5c0.6,0,1.2,0,1.7,0
		c-1.6,3.2-3.2,6.4-4.9,9.6c-0.1,0.1-0.1,0.3-0.2,0.3c-0.6,0-1.1,0-1.7,0c0.4-0.8,0.9-1.6,1.3-2.5c0-0.1,0.2-0.2,0.1-0.4
		c-1-1.9-2-3.7-3-5.6c-0.1-0.2-0.2-0.4-0.3-0.5C27.4,17,27.2,16.7,27.1,16.4L27.1,16.4z"/>
	<g>
		<path class="st0" d="M10.1,22.1c-0.4,0.4-1.1,0.6-1.6,0.5c-0.6,0-1.2-0.2-1.7-0.5C6.2,21.7,6,21,5.9,20.3c2.2,0,4.3,0,6.5,0
			c0-0.3,0-0.6,0-0.9c-0.1-0.6-0.2-1.2-0.5-1.7c-0.4-0.6-1-1.1-1.6-1.3c-0.8-0.3-1.8-0.3-2.6-0.2c-0.8,0.1-1.7,0.4-2.3,1
			c-0.6,0.6-0.9,1.4-1,2.2c-0.1,0.7,0,1.4,0.2,2.1c0.2,0.7,0.7,1.3,1.3,1.6c0.8,0.5,1.7,0.7,2.6,0.7c0.9,0,1.8-0.2,2.6-0.6
			c0.6-0.4,1.1-1,1.2-1.7c-0.6,0-1.1,0-1.7,0C10.4,21.7,10.3,21.9,10.1,22.1z M6.9,17.6c0.6-0.4,1.3-0.5,2-0.4
			c0.6,0.1,1.2,0.4,1.5,0.9c0.2,0.3,0.3,0.7,0.3,1.1c-1.6,0-3.2,0-4.7,0C6,18.6,6.3,18,6.9,17.6z"/>
	</g>
	<g>
		<path class="st0" d="M20.3,18c-0.4-0.7-1-1.3-1.8-1.6c-0.7-0.3-1.6-0.4-2.4-0.3c-0.8,0.1-1.6,0.5-2.2,1.1c0-1.3,0-2.7,0-4
			c-0.5,0-1.1,0-1.6,0c0,2,0,4.1,0,6.1c0,0.3,0,0.6,0,0.9c0,0.8,0,1.6,0,2.4c0,0.2,0,0.5,0,0.7c0.5,0,1.1,0,1.6,0c0-0.3,0-0.6,0.1-1
			c0.2,0.2,0.3,0.3,0.5,0.5c0.8,0.6,1.8,0.8,2.8,0.8c0.8,0,1.6-0.3,2.2-0.8c0.6-0.5,1-1.1,1.2-1.9c0-0.1,0.1-0.2,0.1-0.3
			C20.9,19.8,20.8,18.8,20.3,18z M18.7,21.4c-0.3,0.5-0.8,0.9-1.3,1.1c-0.7,0.2-1.6,0.2-2.2-0.3c-0.5-0.3-0.9-0.9-1-1.5
			c-0.2-0.8-0.1-1.7,0.3-2.4c0.4-0.6,1-1,1.6-1.1c0.7-0.1,1.4,0,2,0.4c0.5,0.4,0.9,1,1,1.6C19.1,20,19.1,20.8,18.7,21.4z"/>
	</g>
	<g>
		<path class="st0" d="M28,22.3c0-1.1-0.1-2.3-0.1-3.5c0-0.4,0.1-0.8,0-1.1c-0.1-0.2-0.2-0.3-0.3-0.5c-0.3-0.4-0.6-0.7-1.1-0.9
			c-0.8-0.3-1.6-0.3-2.5-0.3c-0.7,0.1-1.4,0.2-2.1,0.6c-0.5,0.3-0.8,0.9-0.8,1.5c0.6,0,1.1,0,1.7,0c0-0.3,0.3-0.6,0.5-0.8
			c0.5-0.3,1.1-0.3,1.7-0.3c0.5,0.1,1,0.2,1.3,0.6c0.3,0.3,0.3,0.8,0.3,1.2c-0.8,0-1.6,0-2.4,0c-0.8,0-1.7,0.1-2.5,0.5
			c-0.5,0.2-0.9,0.6-1.1,1.2c0,0.1-0.1,0.2-0.1,0.3c-0.1,0.4,0,0.9,0.1,1.3c0.3,0.6,0.8,1,1.4,1.2c0.8,0.3,1.7,0.3,2.5,0.2
			c0.8-0.1,1.6-0.3,2.1-1c0,0.3,0-0.1,0,0.9c0.5,0,0.6,0,1.1,0C27.9,22.6,28,22.7,28,22.3z M26.1,21.9c-0.5,0.5-1.3,0.7-2,0.7
			c-0.5,0-1-0.1-1.4-0.4c-0.4-0.4-0.6-1.1-0.2-1.5c0.2-0.2,0.5-0.4,0.8-0.4c0.5-0.1,1-0.2,1.6-0.2c0.6,0,1.2,0,1.8,0
			C26.7,20.7,26.6,21.5,26.1,21.9z"/>
	</g>
</g>
</svg>
