<?xml version="1.0" encoding="utf-8"?>
<!-- Generator: Adobe Illustrator 18.1.1, SVG Export Plug-In . SVG Version: 6.00 Build 0)  -->
<!DOCTYPE svg PUBLIC "-//W3C//DTD SVG 1.1//EN" "http://www.w3.org/Graphics/SVG/1.1/DTD/svg11.dtd">
<svg version="1.1" id="Layer_1" xmlns="http://www.w3.org/2000/svg" xmlns:xlink="http://www.w3.org/1999/xlink" x="0px" y="0px"
	 viewBox="0 0 40 40" style="enable-background:new 0 0 40 40;" xml:space="preserve">
<style type="text/css">
	.Graphic_x0020_Style{fill:#739AAC;}
	.st0{fill:#FFFFFF;}
</style>
<rect class="Graphic_x0020_Style" width="40" height="40"/>
<path class="st0" d="M24.1,33.5c-2.4-0.6-4.6-1.5-5.3-7.5h13.9c0,0,0.1-8.8-7.2-10c0,0-4.2-0.7-7.6,2.2c0.1-0.1,0.1-0.2,0.1-0.3
	c0-0.5-2.7-8.3-9.6-11.1c-6.9-2.8,3.7,8.4,3.7,8.4s-5.4-0.8-1.5,1.9c0,0,0.8,0.5,1.7,0.7c0.9,0.2,0.4,1.2,0.4,1.2s-2.1,2.3,1,1.5
	c0,0,1.6-0.5,1.9,0.5c0,0.1,0,0.2,0,0.2c0,0.1-0.1,0.2-0.1,0.4c-0.1,0.2-0.2,0.2-0.2,0.2s0,0,0.1,0c-0.6,1.9-1.4,6,0.9,10.1
	c0,0,3.3,3.9,8.3,3.5c0,0,4-0.3,5.6-1.9L29,32.3C29,32.3,26.5,34,24.1,33.5z M24.3,17.3c4.2,0.1,4.1,6.7,4.1,6.7h-9.6
	C19.7,17,24.3,17.3,24.3,17.3z"/>
</svg>
