<?xml version="1.0" encoding="utf-8"?>
<!-- Generator: Adobe Illustrator 18.0.0, SVG Export Plug-In . SVG Version: 6.00 Build 0)  -->
<!DOCTYPE svg PUBLIC "-//W3C//DTD SVG 1.1//EN" "http://www.w3.org/Graphics/SVG/1.1/DTD/svg11.dtd">
<svg version="1.1" id="eloqua" xmlns="http://www.w3.org/2000/svg" xmlns:xlink="http://www.w3.org/1999/xlink" x="0px" y="0px"
	 viewBox="0 0 40 40" style="enable-background:new 0 0 40 40;" xml:space="preserve">
<style type="text/css">
	.Background{fill-rule:evenodd;clip-rule:evenodd;fill:#ED3328;}
	.st0{fill-rule:evenodd;clip-rule:evenodd;fill:#FFFFFF;}
</style>
<rect x="0" y="0" class="Background" width="40" height="40"/>
<g>
	<path class="st0" d="M27.4,16.6c-0.4-1.5-1.3-2.8-2.7-3.7c-1.3-0.9-2.8-1.4-4.6-1.4c-1.9,0-3.6,0.5-5,1.6c-0.9,0.7-1.7,1.9-2.5,3.6
		H27.4z M34.2,22H12.4c0.3,1.9,1.2,3.5,2.5,4.7c1.4,1.1,3.1,1.7,5.2,1.7c2.5,0,4.7-0.9,6.5-2.7l5.7,2.7c-1.4,2-3.1,3.6-5.1,4.5
		c-2,1-4.3,1.5-7.1,1.5c-4.2,0-7.7-1.4-10.4-4.1c-2.7-2.7-4-6.1-4-10.2c0-4.2,1.3-7.7,4-10.4c2.7-2.8,6-4.1,10-4.1
		c4.3,0,7.7,1.4,10.4,4.1c2.7,2.8,4,6.4,4,10.9L34.2,22z"/>
</g>
</svg>
