<?xml version="1.0" encoding="utf-8"?>
<!-- Generator: Adobe Illustrator 18.1.0, SVG Export Plug-In . SVG Version: 6.00 Build 0)  -->
<!DOCTYPE svg PUBLIC "-//W3C//DTD SVG 1.1//EN" "http://www.w3.org/Graphics/SVG/1.1/DTD/svg11.dtd">
<svg version="1.1" id="Layer_1" xmlns="http://www.w3.org/2000/svg" xmlns:xlink="http://www.w3.org/1999/xlink" x="0px" y="0px"
	 viewBox="0 0 40 40" style="enable-background:new 0 0 40 40;" xml:space="preserve">
<style type="text/css">
	.Colorstyle1{fill:#0BAEDA;}
	.st0{fill:#FFFFFF;}
</style>
<rect class="Colorstyle1" width="40" height="40"/>
<path class="st0" d="M7.8,20.1l6-6c0.6-0.6,0.6-1.6,0-2.2c-0.6-0.6-1.6-0.6-2.2,0L4.6,19c-0.3,0.3-0.5,0.7-0.5,1.1
	c0,0.4,0.1,0.8,0.5,1.1l7.1,7.1c0.6,0.6,1.6,0.6,2.2,0c0.6-0.6,0.6-1.6,0-2.2L7.8,20.1z"/>
<path class="st0" d="M35.7,18.7l-7.1-7.1C28,11,27,11,26.4,11.6c-0.6,0.6-0.6,1.6,0,2.2l6,6l-6,6c-0.6,0.6-0.6,1.6,0,2.2
	c0.6,0.6,1.6,0.6,2.2,0l7.1-7.1c0.3-0.3,0.5-0.7,0.5-1.1C36.1,19.4,36,19,35.7,18.7z"/>
<path class="st0" d="M19.2,28.8c-0.2,0.9-1.2,1.4-2.1,1.2l0,0c-0.9-0.2-1.4-1.2-1.2-2.1l4.6-17.1c0.2-0.9,1.2-1.4,2.1-1.2l0,0
	c0.9,0.2,1.4,1.2,1.2,2.1L19.2,28.8z"/>
</svg>
