<?xml version="1.0" encoding="utf-8"?>
<!-- Generator: Adobe Illustrator 18.0.0, SVG Export Plug-In . SVG Version: 6.00 Build 0)  -->
<!DOCTYPE svg PUBLIC "-//W3C//DTD SVG 1.1//EN" "http://www.w3.org/Graphics/SVG/1.1/DTD/svg11.dtd">
<svg version="1.1" id="euro" xmlns="http://www.w3.org/2000/svg" xmlns:xlink="http://www.w3.org/1999/xlink" x="0px" y="0px"
	 viewBox="0 0 40 40" style="enable-background:new 0 0 40 40;" xml:space="preserve">
<style type="text/css">
	.Background{fill:#17A84A;}
	.st0{clip-path:url(#SVGID_2_);fill:#FFFFFF;}
</style>
<rect y="0" class="Background" width="40" height="40"/>
<g>
	<defs>
		<rect id="SVGID_1_" y="0" width="40" height="40"/>
	</defs>
	<clipPath id="SVGID_2_">
		<use xlink:href="#SVGID_1_"  style="overflow:visible;"/>
	</clipPath>
	<path class="st0" d="M22.9,6.1C17,6.2,12.3,11,11.1,17.3H7.8l-0.9,2.1h3.9c0,0.4,0,0.8,0,1.3c0,0.5,0,0.9,0.1,1.4h-3L7,24.1h4.1
		c1.4,6.2,6.5,10.8,12.4,10.8c2.9,0,6-1.3,8.5-3.3l0-3.1c-2,2.8-5,4.2-8.5,4.2c-4.9,0-9-3.5-10.4-8.6h14.7l0.8-2.1H12.8
		c0-0.4-0.1-0.9-0.1-1.4c0-0.4,0-0.8,0.1-1.3h16.8l0.8-2.1H13.1c1.2-5.2,5.1-8.8,10.1-8.8c3.5,0,6.7,1.5,8.8,4.3l0.8-2.3
		c-2.7-2.4-6.2-4.1-9.6-4.3C23.1,6.2,23,6.1,22.9,6.1"/>
</g>
</svg>
