<?xml version="1.0" encoding="utf-8"?>
<!-- Generator: Adobe Illustrator 18.0.0, SVG Export Plug-In . SVG Version: 6.00 Build 0)  -->
<!DOCTYPE svg PUBLIC "-//W3C//DTD SVG 1.1//EN" "http://www.w3.org/Graphics/SVG/1.1/DTD/svg11.dtd">
<svg version="1.1" id="flickr" xmlns="http://www.w3.org/2000/svg" xmlns:xlink="http://www.w3.org/1999/xlink" x="0px" y="0px"
	 viewBox="0 0 40 40" style="enable-background:new 0 0 40 40;" xml:space="preserve">
<style type="text/css">
	.Background{fill:#ED2183;}
	.st0{fill:#FFFFFF;}
</style>
<rect class="Background" width="40" height="40"/>
<g id="g2403" transform="matrix(1.0986567,0,0,1.0986567,0,-7.6819571)">
	<g id="g2405">
		<path id="path2407" class="st0" d="M4.8,25H3.6v-1.4h1.2v-0.4c0-1.8,0.8-2.4,2.4-2.4c0.4,0,0.8,0.1,1,0.1l-0.1,1.4
			c-0.2-0.1-0.3-0.1-0.6-0.1c-0.5,0-0.7,0.4-0.7,0.9v0.4h1.4V25H6.8v4.5h-2V25z"/>
		<rect id="rect2409" x="9.2" y="20.9" class="st0" width="2" height="8.6"/>
		<rect id="rect2411" x="12.9" y="21.1" class="st0" width="2" height="1.5"/>
		<rect id="rect2413" x="12.9" y="23.5" class="st0" width="2" height="5.9"/>
		<path id="path2415" class="st0" d="M20.9,25.2c-0.4-0.2-0.7-0.3-1.2-0.3c-0.9,0-1.5,0.6-1.5,1.6c0,0.9,0.8,1.6,1.6,1.6
			c0.5,0,0.9-0.1,1.2-0.3l0,1.5c-0.5,0.2-1.1,0.3-1.6,0.3c-1.9,0-3.3-1.1-3.3-3.1c0-2,1.4-3.1,3.3-3.1c0.6,0,1.1,0.1,1.6,0.3
			L20.9,25.2z"/>
		<polygon id="polygon2417" class="st0" points="21.9,20.9 23.9,20.9 23.9,26 23.9,26 25.5,23.5 27.7,23.5 25.7,26.3 27.9,29.5 
			25.5,29.5 23.9,26.5 23.9,26.5 23.9,29.5 21.9,29.5 		"/>
		<path id="path2419" class="st0" d="M32.7,25.2c-0.2-0.1-0.4-0.1-0.7-0.1c-0.9,0-1.4,0.7-1.4,1.9v2.5h-2v-5.9h1.8v1.1h0
			c0.3-0.8,0.8-1.2,1.7-1.2c0.2,0,0.5,0,0.7,0.1L32.7,25.2z"/>
	</g>
</g>
</svg>
