<?xml version="1.0" encoding="utf-8"?>
<!-- Generator: Adobe Illustrator 18.0.0, SVG Export Plug-In . SVG Version: 6.00 Build 0)  -->
<!DOCTYPE svg PUBLIC "-//W3C//DTD SVG 1.1//EN" "http://www.w3.org/Graphics/SVG/1.1/DTD/svg11.dtd">
<svg version="1.1" id="getresponse" xmlns="http://www.w3.org/2000/svg" xmlns:xlink="http://www.w3.org/1999/xlink" x="0px"
	 y="0px" viewBox="0 0 40 40" style="enable-background:new 0 0 40 40;" xml:space="preserve">
<style type="text/css">
	.Background{fill:#24AAE2;}
	.st0{fill:#FFFFFF;}
	.st1{fill:#24AAE2;}
</style>
<rect class="Background" width="40" height="40"/>
<path class="st0" d="M36,28c0,1.1-0.9,2-2,2H6c-1.1,0-2-0.9-2-2V12c0-1.1,0.9-2,2-2h28c1.1,0,2,0.9,2,2V28z"/>
<path class="st1" d="M36,10.6c0,0-7.8,10.5-15.9,10.9c0,0-8.4-0.1-10.5-7.9c0,0,0-0.8-1.1-0.8c0,0-1.7-0.3-1.2,2.3
	c0,0,1.5,10.2,12.8,10.8c0,0,8,0.7,15.9-12.2V10.6z"/>
</svg>
