<?xml version="1.0" encoding="utf-8"?>
<!-- Generator: Adobe Illustrator 16.0.0, SVG Export Plug-In . SVG Version: 6.00 Build 0)  -->
<!DOCTYPE svg PUBLIC "-//W3C//DTD SVG 1.1//EN" "http://www.w3.org/Graphics/SVG/1.1/DTD/svg11.dtd">
<svg version="1.1" id="Layer_1" xmlns="http://www.w3.org/2000/svg" xmlns:xlink="http://www.w3.org/1999/xlink" x="0px" y="0px"
	 width="40px" height="40px" viewBox="0 0 40 40" style="enable-background:new 0 0 40 40;" xml:space="preserve">
<style type="text/css">
<![CDATA[
	.st0{fill:#FFFFFF;}
	.st1{fill:#010101;}
]]>
</style>
<rect class="st1" width="40" height="40"/>
<path class="st0" d="M21.531,20.469L7.281,5.938c0,0-0.719,0.438-0.719,1.031S6.531,33.156,6.531,33.156s0.281,1.031,1.063,1.281
	L21.531,20.469z"/>
<path class="st0" d="M22.281,19.813l4.188-4.156L13.375,8.313c0,0-4.75-2.844-5.125-2.688L22.281,19.813z"/>
<polygon class="st0" points="22.281,21.188 25.906,24.906 9.281,34.125 "/>
<path class="st0" d="M22.938,20.531l4.406-4.344L32.375,19c0,0,1.906,1.063,0.156,2.188l-5.719,3.25L22.938,20.531z"/>
</svg>
