<?xml version="1.0" encoding="utf-8"?>
<!-- Generator: Adobe Illustrator 18.0.0, SVG Export Plug-In . SVG Version: 6.00 Build 0)  -->
<!DOCTYPE svg PUBLIC "-//W3C//DTD SVG 1.1//EN" "http://www.w3.org/Graphics/SVG/1.1/DTD/svg11.dtd">
<svg version="1.1" id="hand" xmlns="http://www.w3.org/2000/svg" xmlns:xlink="http://www.w3.org/1999/xlink" x="0px" y="0px"
	 viewBox="0 0 40 40" style="enable-background:new 0 0 40 40;" xml:space="preserve">
<style type="text/css">
	.Background{fill:#0BAEDA;}
	.st0{fill:#FFFFFF;}
</style>
<rect class="Background" width="40" height="40"/>
<g>
	<polygon class="st0" points="16.6,34.9 16.6,32 15.2,32 15.2,29 13.7,29 13.7,27.8 12.2,27.8 12.2,26.1 10.8,26 10.8,22.9 
		10.8,21.6 9.3,21.6 9.3,18.2 12.7,18.2 12.7,19.7 14.2,19.7 14.2,24.1 15.2,24.1 15.2,4.9 18.6,4.9 18.6,18.2 19.5,18.2 19.5,12.3 
		22.9,12.3 22.9,18.2 23.9,18.2 23.9,13.8 27.3,13.8 27.3,15.2 27.3,15.5 27.3,19.7 28.3,19.7 28.3,15.2 30.2,15.2 30.2,16.7 
		31.7,16.7 31.7,27.5 30.2,27.5 30.2,32 28.8,32 28.8,34.9 	"/>
	<path class="st0" d="M18.3,5.2v13.3h1.5v-5.9h2.9v5.9h1.5V14H27v1.5h0v4.4h1.5v-4.4H30V17h1.5v10.3H30v4.4h-1.5v3H16.9v-3h-1.5
		v-2.9h-1.5v-1.3l-1.5,0l0-1.7l-1.4,0l0-2.9v-1.5H9.6v-3h2.9v1.5h1.5v4.4h1.5V5.2H18.3 M18.8,4.7h-0.5h-2.9h-0.5v0.5v18.7h-0.5v-3.9
		v-0.5h-0.5h-1v-1v-0.5h-0.5H9.6H9.1v0.5v3v0.5h0.5h1v1l0,2.9l0,0.5l0.5,0l1,0l0,1.2l0,0.5l0.5,0l1,0v0.7v0.5h0.5h1v2.4v0.5h0.5h1
		v2.5v0.5h0.5h11.7H29v-0.5v-2.5h1h0.5v-0.5v-3.9h1h0.5v-0.5V17v-0.5h-0.5h-1v-1V15H30h-1.5H28v0.5v3.9h-0.5v-3.9V15h0v-1v-0.5H27
		h-2.9h-0.5V14v3.9h-0.5v-5.4V12h-0.5h-2.9h-0.5v0.5v5.4h-0.5V5.2V4.7L18.8,4.7z"/>
</g>
</svg>
