<?xml version="1.0" encoding="utf-8"?>
<!-- Generator: Adobe Illustrator 18.0.0, SVG Export Plug-In . SVG Version: 6.00 Build 0)  -->
<!DOCTYPE svg PUBLIC "-//W3C//DTD SVG 1.1//EN" "http://www.w3.org/Graphics/SVG/1.1/DTD/svg11.dtd">
<svg version="1.1" xmlns="http://www.w3.org/2000/svg" xmlns:xlink="http://www.w3.org/1999/xlink" x="0px" y="0px"
	 viewBox="0 0 40 40" style="enable-background:new 0 0 40 40;" xml:space="preserve">
<style type="text/css">
	.st0{fill:url(#SVGID_1_);}
	.st1{fill:none;stroke:#000000;stroke-linecap:round;stroke-linejoin:round;stroke-miterlimit:10;}
</style>
<g id="Layer_1">
</g>
<g id="Layer_2">
	<linearGradient id="SVGID_1_" gradientUnits="userSpaceOnUse" x1="20" y1="1.4063" x2="20" y2="38.5938">
		<stop  offset="0" style="stop-color:#FFDE17"/>
		<stop  offset="1" style="stop-color:#ED1C24"/>
	</linearGradient>
	<circle class="st0" cx="20" cy="20" r="18.6"/>
	<ellipse transform="matrix(0.9333 -0.3592 0.3592 0.9333 -3.9885 6.094)" cx="14.4" cy="13.8" rx="1.8" ry="4.3"/>
	<ellipse transform="matrix(0.9621 0.2725 -0.2725 0.9621 4.5374 -6.2311)" cx="24.7" cy="13.2" rx="1.8" ry="4.3"/>
	<path class="st1" d="M10.2,15.5c0,0,0.5,2,0.1,3.9c-0.3,1.2-0.9,2.3-2.2,2.9"/>
	<path class="st1" d="M10.4,19.8c0,0,3.8,10.1,9.1,10.8"/>
	<path class="st1" d="M28.8,19.8c0,0-3.8,10.1-9.1,10.8"/>
	<path class="st1" d="M29.1,15.5c0,0-0.5,2-0.1,3.9c0.3,1.2,0.9,2.3,2.2,2.9"/>
</g>
</svg>
