<?xml version="1.0" encoding="utf-8"?>
<!-- Generator: Adobe Illustrator 18.0.0, SVG Export Plug-In . SVG Version: 6.00 Build 0)  -->
<!DOCTYPE svg PUBLIC "-//W3C//DTD SVG 1.1//EN" "http://www.w3.org/Graphics/SVG/1.1/DTD/svg11.dtd">
<svg version="1.1" id="icontact" xmlns="http://www.w3.org/2000/svg" xmlns:xlink="http://www.w3.org/1999/xlink" x="0px" y="0px"
	 viewBox="0 0 40 40" style="enable-background:new 0 0 40 40;" xml:space="preserve">
<style type="text/css">
	.Background{fill:#EE8122;}
	.st0{fill:#FFFFFF;}
</style>
<rect class="Background" width="40" height="40"/>
<g>
	<path class="st0" d="M23.9,34.9c0,0.1-0.1,0.2-0.2,0.3c-0.1,0.1-0.2,0.2-0.4,0.2c-0.2,0.1-0.4,0.1-0.7,0.2c-0.3,0-0.7,0.1-1.1,0.1
		c-0.4,0-0.8,0-1.1,0c-0.3,0-0.5,0-0.7-0.1c-0.2,0-0.3-0.1-0.3-0.2c-0.1-0.1-0.1-0.2-0.1-0.3l2.1-15.7c0-0.1,0.1-0.2,0.1-0.3
		c0.1-0.1,0.2-0.2,0.4-0.3c0.2-0.1,0.4-0.1,0.7-0.2c0.3-0.1,0.7-0.1,1.1-0.1c0.4,0,0.8,0,1.1,0c0.3,0,0.5,0.1,0.7,0.1
		c0.2,0.1,0.3,0.1,0.3,0.2C26,19,26,19.1,26,19.2L23.9,34.9z M27.2,15c-0.1,0.4-0.1,0.8-0.3,1.1c-0.1,0.3-0.3,0.6-0.5,0.8
		c-0.2,0.2-0.5,0.3-0.9,0.4c-0.3,0.1-0.8,0.2-1.3,0.2c-0.5,0-0.9,0-1.2,0c-0.3-0.1-0.6-0.2-0.7-0.3c-0.2-0.2-0.3-0.4-0.3-0.7
		c0-0.3,0-0.7,0-1.1c0.1-0.4,0.1-0.8,0.3-1.1c0.1-0.3,0.3-0.6,0.5-0.8c0.2-0.2,0.5-0.4,0.9-0.5c0.3-0.1,0.8-0.2,1.3-0.2
		c0.5,0,0.9,0,1.2,0c0.3,0.1,0.6,0.2,0.8,0.4c0.2,0.2,0.3,0.4,0.3,0.7C27.2,14.3,27.2,14.6,27.2,15z"/>
</g>
<g>
	<path class="st0" d="M20.9,8.5c-0.1,0-0.3,0-0.4,0.1c-1.9,1-3.2,2.7-3.8,4.8c-0.5,2-0.2,4,0.8,5.8c0.2,0.3,0.5,0.4,0.7,0.4
		c0.2,0,0.3,0,0.4-0.1c0.4-0.2,0.5-0.8,0.3-1.2c-0.8-1.3-1-2.9-0.6-4.4c0.4-1.6,1.5-2.9,2.9-3.7c0.4-0.2,0.6-0.8,0.3-1.2
		C21.5,8.7,21.2,8.5,20.9,8.5"/>
</g>
<g>
	<path class="st0" d="M15.2,19.4c-1.2-1.9-1.5-4.2-0.9-6.5c0.7-2.6,2.5-4.9,5.1-6.3l0,0c0.6-0.3,0.8-1.1,0.5-1.7
		c-0.3-0.6-1.1-0.8-1.7-0.5l0,0c-3.1,1.7-5.4,4.6-6.3,7.8c-0.8,2.9-0.4,5.9,1.1,8.4l0,0c0.4,0.6,1.1,0.8,1.7,0.4
		C15.4,20.8,15.6,20,15.2,19.4L15.2,19.4z"/>
</g>
</svg>
