<?xml version="1.0" encoding="utf-8"?>
<!-- Generator: Adobe Illustrator 18.0.0, SVG Export Plug-In . SVG Version: 6.00 Build 0)  -->
<!DOCTYPE svg PUBLIC "-//W3C//DTD SVG 1.1//EN" "http://www.w3.org/Graphics/SVG/1.1/DTD/svg11.dtd">
<svg version="1.1" id="info" xmlns="http://www.w3.org/2000/svg" xmlns:xlink="http://www.w3.org/1999/xlink" x="0px" y="0px"
	 viewBox="0 0 40 40" style="enable-background:new 0 0 40 40;" xml:space="preserve">
<style type="text/css">
	.Background{fill:#0BAEDA;}
	.st0{fill:#FFFFFF;}
</style>
<rect class="Background" width="40" height="40"/>
<ellipse class="st0" cx="24.5" cy="7.8" rx="3.5" ry="3.6"/>
<path class="st0" d="M13,30.8c0,0,4.5-12.1,5.1-13.2c0,0,0.6-2.4-1.8-0.7L13.4,20c0,0-1.5,1.2-1.3-0.8c0,0,2.3-3.3,6-5.4
	c0,0,5.7-2.5,6.9,1.1c0,0,0.8,0.8-1.2,6.2l-3.3,8.6c0,0-0.8,2.8,0.9,1.6l1-0.8l2-2c0,0,1.6-2.2,1.6-0.1c0,0-0.1,1.4-4.4,4.9
	c0,0-3.1,3-7.3,2.1C14.4,35.4,11.9,34.8,13,30.8z"/>
</svg>
