<?xml version="1.0" encoding="utf-8"?>
<!-- Generator: Adobe Illustrator 18.0.0, SVG Export Plug-In . SVG Version: 6.00 Build 0)  -->
<!DOCTYPE svg PUBLIC "-//W3C//DTD SVG 1.1//EN" "http://www.w3.org/Graphics/SVG/1.1/DTD/svg11.dtd">
<svg version="1.1" id="madmimi" xmlns="http://www.w3.org/2000/svg" xmlns:xlink="http://www.w3.org/1999/xlink" x="0px" y="0px"
	 viewBox="0 0 40 40" style="enable-background:new 0 0 40 40;" xml:space="preserve">
<style type="text/css">
	.Background{fill:#EF4673;}
	.st0{fill:#FFFFFF;}
</style>
<rect class="Background" width="40" height="40"/>
<path class="st0" d="M21.3,12c0,0-4-1.3-4.1,0.5c0,0-0.5,1,1,1c0,0,1.1,0.1-0.2,1.3c0,0-5.1,4.3-8.3,0c0,0-2.4-6.6,6.2-7.6
	c0,0,3.5,0.3,6.7,2.2l3.1-0.1c0,0,0.9-0.1-0.4,2.6l0.2,5.4c0,0,5.7-9.6,9.7-8.6c0,0,1.5,0,0,2.4c0,0-4.5,6.2-1.9,10.4
	c0,0,1.7-0.6,1.7-0.1c0,0,0.9,3.2-3.5,5.6c0,0-4.1,1.6-3.7-4.9l2.1-6.4c0,0,0.4-1.6-0.8-0.1c0,0-5.5,12-6.7,8.9v-8.6
	c0,0-0.1-2-0.6,0.1C21.4,18.1,19.8,30,11,30.3c0,0-6.8,0.3-7.2-5.9c0,0,0.6-6.2,7.5-6.4c0,0,3.2-0.2,1.4,1.7c0,0-0.8,2.4,1.4,2.4
	c0,0,2,0.5,3.6-3.3C17.7,18.8,20.7,12.8,21.3,12z"/>
</svg>
