<?xml version="1.0" encoding="utf-8"?>
<!-- Generator: Adobe Illustrator 18.1.0, SVG Export Plug-In . SVG Version: 6.00 Build 0)  -->
<!DOCTYPE svg PUBLIC "-//W3C//DTD SVG 1.1//EN" "http://www.w3.org/Graphics/SVG/1.1/DTD/svg11.dtd">
<svg version="1.1" id="Layer_1" xmlns="http://www.w3.org/2000/svg" xmlns:xlink="http://www.w3.org/1999/xlink" x="0px" y="0px"
	 viewBox="0 0 40 40" style="enable-background:new 0 0 40 40;" xml:space="preserve">
<style type="text/css">
	.st0{fill:#F05225;}
	.st1{fill:#80BB41;}
	.st2{fill:#35A0DA;}
	.st3{fill:#FDB813;}
</style>
<path class="st0" d="M4.1,4h15.2c0,5.1,0,10.1,0,15.2c-5.1,0-10.1,0-15.2,0V4L4.1,4z"/>
<path class="st1" d="M20.8,4H36c0,5.1,0,10.1,0,15.2c-5.1,0-10.1,0-15.2,0C20.8,14.1,20.8,9,20.8,4L20.8,4z"/>
<path class="st2" d="M4.1,20.7c5.1,0,10.1,0,15.2,0c0,5.1,0,10.1,0,15.2H4.1V20.7L4.1,20.7z"/>
<path class="st3" d="M20.8,20.7c5.1,0,10.1,0,15.2,0c0,5.1,0,10.1,0,15.2H20.8C20.8,30.8,20.8,25.8,20.8,20.7L20.8,20.7z"/>
</svg>
