<?xml version="1.0" encoding="utf-8"?>
<!-- Generator: Adobe Illustrator 18.0.0, SVG Export Plug-In . SVG Version: 6.00 Build 0)  -->
<!DOCTYPE svg PUBLIC "-//W3C//DTD SVG 1.1//EN" "http://www.w3.org/Graphics/SVG/1.1/DTD/svg11.dtd">
<svg version="1.1" id="music" xmlns="http://www.w3.org/2000/svg" xmlns:xlink="http://www.w3.org/1999/xlink" x="0px" y="0px"
	 viewBox="0 0 40 40" style="enable-background:new 0 0 40 40;" xml:space="preserve">
<style type="text/css">
	.Background{fill:#0BAEDA;}
	.st0{fill:#FFFFFF;}
</style>
<rect class="Background" width="40" height="40"/>
<path class="st0" d="M30.8,4.5l-15,2.3c-1.8,0.2-1.8,1-1.8,1V8v7.1V29c0-0.3-1.2-0.5-2-0.5c-2.5,0-4.4,1.6-4.4,3.5
	c0,2,2.2,3.5,4.7,3.5c2.5,0,4.7-1.6,4.7-3.5V14.6l12-2.1V27c0-0.3-1.2-0.5-2-0.5c-2.5,0-4.4,1.6-4.4,3.5c0,2,2.2,3.5,4.7,3.5
	c2.5,0,4.7-1.6,4.7-3.5V12c0,0,0-4.2,0-6c0-0.2,0-0.4,0-0.5C32,4.1,30.8,4.5,30.8,4.5z"/>
</svg>
