<?xml version="1.0" encoding="utf-8"?>
<!-- Generator: Adobe Illustrator 18.0.0, SVG Export Plug-In . SVG Version: 6.00 Build 0)  -->
<!DOCTYPE svg PUBLIC "-//W3C//DTD SVG 1.1//EN" "http://www.w3.org/Graphics/SVG/1.1/DTD/svg11.dtd">
<svg version="1.1" id="Layer_2" xmlns="http://www.w3.org/2000/svg" xmlns:xlink="http://www.w3.org/1999/xlink" x="0px" y="0px"
	 viewBox="0 0 40 40" style="enable-background:new 0 0 40 40;" xml:space="preserve">
<style type="text/css">
	.st0{fill:#2B99D0;stroke:#969A9C;stroke-miterlimit:10;}
	.st1{fill:#139B49;stroke:#95999B;stroke-miterlimit:10;}
	.st2{fill:#FECD0C;stroke:#95999B;stroke-miterlimit:10;}
	.st3{fill:#F16824;stroke:#95999B;stroke-miterlimit:10;}
	.st4{fill:none;stroke:#95999B;stroke-miterlimit:10;}
</style>
<rect x="0.5" y="0.5" class="st0" width="7" height="7"/>
<rect x="0.5" y="11.4" class="st1" width="7" height="7"/>
<rect x="0.5" y="21.5" class="st2" width="7" height="7"/>
<rect x="0.5" y="32.5" class="st3" width="7" height="7"/>
<line class="st4" x1="11.9" y1="32.5" x2="33.7" y2="32.5"/>
<line class="st4" x1="11.9" y1="35.3" x2="35.6" y2="35.3"/>
<line class="st4" x1="11.9" y1="38.1" x2="33.7" y2="38.1"/>
<line class="st4" x1="11.9" y1="21.5" x2="29.9" y2="21.5"/>
<line class="st4" x1="11.9" y1="24.3" x2="37.6" y2="24.3"/>
<line class="st4" x1="11.9" y1="27.1" x2="35.9" y2="27.1"/>
<line class="st4" x1="11.9" y1="11.5" x2="33.7" y2="11.5"/>
<line class="st4" x1="11.9" y1="14.3" x2="35.6" y2="14.3"/>
<line class="st4" x1="11.9" y1="17.1" x2="33.7" y2="17.1"/>
<line class="st4" x1="11.9" y1="0.5" x2="29.9" y2="0.5"/>
<line class="st4" x1="11.9" y1="3.3" x2="37.6" y2="3.3"/>
<line class="st4" x1="11.9" y1="6.1" x2="35.9" y2="6.1"/>
</svg>
