<?xml version="1.0" encoding="utf-8"?>
<!-- Generator: Adobe Illustrator 14.0.0, SVG Export Plug-In . SVG Version: 6.00 Build 43363)  -->
<!DOCTYPE svg PUBLIC "-//W3C//DTD SVG 1.1//EN" "http://www.w3.org/Graphics/SVG/1.1/DTD/svg11.dtd">
<svg version="1.1" id="Layer_1" xmlns="http://www.w3.org/2000/svg" xmlns:xlink="http://www.w3.org/1999/xlink" x="0px" y="0px"
	 width="16px" height="16px" viewBox="0 0 16 16" enable-background="new 0 0 16 16" xml:space="preserve">
<path fill="#FFFFFF" d="M0,14c0,1.104,0.896,2,2,2h12c1.104,0,2-0.896,2-2V2c0-1.104-0.896-2-2-2H2C0.896,0,0,0.896,0,2V14z"/>
<path fill="#E12B27" d="M0,8v6.223C0,15.204,0.896,16,2,16h12c1.104,0,2-0.796,2-1.777V8"/>
<path fill-rule="evenodd" clip-rule="evenodd" fill="#010101" d="M6.615,1H5.71L5.1,3.348L4.464,1H3.522
	C3.71,1.554,3.907,2.111,4.096,2.666C4.384,3.5,4.563,4.128,4.644,4.557v2.422h0.895V4.557L6.615,1z"/>
<path fill-rule="evenodd" clip-rule="evenodd" fill="#010101" d="M9.009,5.537V3.976c0-0.477-0.081-0.824-0.25-1.049
	C8.534,2.623,8.221,2.47,7.816,2.47c-0.402,0-0.716,0.152-0.939,0.457C6.705,3.152,6.624,3.5,6.624,3.976v1.561
	c0,0.474,0.082,0.825,0.253,1.048C7.1,6.889,7.414,7.042,7.816,7.042c0.405,0,0.718-0.153,0.942-0.457
	C8.928,6.362,9.009,6.011,9.009,5.537z"/>
<path fill-rule="evenodd" clip-rule="evenodd" fill="#FFFFFF" d="M8.201,5.689c0,0.411-0.124,0.618-0.385,0.618
	c-0.26,0-0.385-0.207-0.385-0.618V3.814c0-0.412,0.125-0.617,0.385-0.617c0.261,0,0.385,0.206,0.385,0.617V5.689z"/>
<path fill-rule="evenodd" clip-rule="evenodd" fill="#010101" d="M11.995,6.979V2.524h-0.808v3.405
	c-0.179,0.253-0.35,0.378-0.51,0.378c-0.109,0-0.173-0.063-0.191-0.189c-0.008-0.026-0.008-0.125-0.008-0.314v-3.28H9.674v3.523
	c0,0.314,0.026,0.527,0.07,0.662c0.081,0.226,0.261,0.333,0.521,0.333c0.294,0,0.6-0.18,0.922-0.548v0.486H11.995z"/>
<polygon fill-rule="evenodd" clip-rule="evenodd" fill="#FFFFFF" points="5.16,9.01 2.375,9.01 2.375,9.844 3.315,9.844 
	3.315,14.928 4.203,14.928 4.203,9.844 5.16,9.844 "/>
<path fill-rule="evenodd" clip-rule="evenodd" fill="#FFFFFF" d="M7.575,10.52h-0.8v3.369c-0.177,0.25-0.344,0.373-0.505,0.373
	c-0.107,0-0.167-0.063-0.187-0.186c-0.008-0.027-0.008-0.125-0.008-0.311V10.52H5.277v3.484c0,0.313,0.027,0.523,0.071,0.656
	c0.08,0.223,0.257,0.328,0.515,0.328c0.294,0,0.596-0.178,0.913-0.543v0.482h0.8V10.52z"/>
<path fill-rule="evenodd" clip-rule="evenodd" fill="#FFFFFF" d="M13.625,11.957c0-0.473-0.081-0.816-0.247-1.039
	c-0.224-0.303-0.543-0.453-0.943-0.453c-0.407,0-0.726,0.15-0.956,0.453c-0.17,0.223-0.247,0.566-0.247,1.039V13.5
	c0,0.469,0.087,0.816,0.257,1.037c0.23,0.301,0.549,0.451,0.967,0.451c0.416,0,0.745-0.158,0.967-0.479
	c0.097-0.141,0.158-0.301,0.187-0.479c0.007-0.08,0.017-0.256,0.017-0.514V13.4H12.81c0,0.32-0.01,0.498-0.017,0.541
	c-0.046,0.215-0.161,0.32-0.358,0.32c-0.274,0-0.407-0.203-0.407-0.611v-0.781h1.598V11.957z"/>
<path fill-rule="evenodd" clip-rule="evenodd" fill="#FFFFFF" d="M10.609,11.85c0-0.418-0.028-0.709-0.081-0.887
	c-0.106-0.33-0.319-0.498-0.638-0.498c-0.294,0-0.567,0.16-0.826,0.479V9.01H8.266v5.918h0.799V14.5
	c0.268,0.33,0.541,0.488,0.826,0.488c0.318,0,0.531-0.168,0.638-0.496c0.053-0.186,0.081-0.479,0.081-0.887V11.85z"/>
<path fill-rule="evenodd" clip-rule="evenodd" fill="#E12B27" d="M12.825,11.797v0.408h-0.798v-0.408c0-0.408,0.133-0.613,0.4-0.613
	C12.692,11.184,12.825,11.389,12.825,11.797z"/>
<path fill-rule="evenodd" clip-rule="evenodd" fill="#E12B27" d="M9.463,11.184c-0.131,0-0.266,0.064-0.398,0.195v2.688
	c0.133,0.133,0.268,0.195,0.398,0.195c0.23,0,0.347-0.195,0.347-0.594v-1.883C9.81,11.389,9.693,11.184,9.463,11.184z"/>
</svg>
