<?xml version="1.0" encoding="utf-8"?>
<!-- Generator: Adobe Illustrator 18.0.0, SVG Export Plug-In . SVG Version: 6.00 Build 0)  -->
<!DOCTYPE svg PUBLIC "-//W3C//DTD SVG 1.1//EN" "http://www.w3.org/Graphics/SVG/1.1/DTD/svg11.dtd">
<svg version="1.1" id="Layer_1" xmlns="http://www.w3.org/2000/svg" xmlns:xlink="http://www.w3.org/1999/xlink" x="0px" y="0px"
	 viewBox="0 0 40 40" style="enable-background:new 0 0 40 40;" xml:space="preserve">
<style type="text/css">
	.st0{fill:url(#SVGID_1_);stroke:url(#SVGID_2_);stroke-width:0.5;stroke-miterlimit:10;}
	.st1{fill:#FFFFFF;stroke:#34A5DE;stroke-width:0.25;stroke-miterlimit:10;}
</style>
<linearGradient id="SVGID_1_" gradientUnits="userSpaceOnUse" x1="19.9991" y1="1.0962" x2="19.9991" y2="38.9038">
	<stop  offset="0" style="stop-color:#FFFFFF"/>
	<stop  offset="1.138556e-002" style="stop-color:#F8FBFE"/>
	<stop  offset="0.1349" style="stop-color:#C7E0F5"/>
	<stop  offset="0.263" style="stop-color:#9ECDEE"/>
	<stop  offset="0.3941" style="stop-color:#7CBFE9"/>
	<stop  offset="0.5292" style="stop-color:#5EB5E6"/>
	<stop  offset="0.6699" style="stop-color:#45AFE3"/>
	<stop  offset="0.8198" style="stop-color:#30ABE2"/>
	<stop  offset="0.9947" style="stop-color:#27AAE1"/>
</linearGradient>
<linearGradient id="SVGID_2_" gradientUnits="userSpaceOnUse" x1="10.9298" y1="35.7086" x2="28.9964" y2="4.4163">
	<stop  offset="0" style="stop-color:#E6E7E8"/>
	<stop  offset="0.9947" style="stop-color:#27AAE1"/>
</linearGradient>
<path class="st0" d="M37.7,24c0.3-1.2,0.4-2.5,0.4-3.8c0-9.8-8-17.8-17.9-17.8c-1,0-2.1,0.1-3.1,0.3c-1.6-1-3.5-1.6-5.5-1.6
	C5.9,1.1,1.2,5.7,1.2,11.4c0,1.9,0.5,3.7,1.4,5.2c-0.2,1.2-0.4,2.4-0.4,3.6c0,9.8,8,17.8,17.9,17.8c1.1,0,2.2-0.1,3.3-0.3
	c1.5,0.8,3.1,1.2,4.9,1.2c5.7,0,10.4-4.6,10.4-10.3C38.8,26.9,38.4,25.4,37.7,24z"/>
<path class="st1" d="M14.5,8L14.5,8c-1.6,0.6-2.8,1.4-3.6,2.5c-0.8,1.1-1.3,2.3-1.3,3.7c0,1.5,0.4,2.7,1.2,3.7
	c0.8,1,1.9,1.8,3.2,2.3c1.3,0.6,3,1,4.9,1.5c1.4,0.3,2.6,0.6,3.4,0.8c0.8,0.3,1.5,0.6,2,1.1c0.5,0.4,0.7,1,0.7,1.8
	c0,0.9-0.5,1.7-1.4,2.3c-0.9,0.6-2.2,1-3.8,1c-1.1,0-2-0.2-2.7-0.5c-0.7-0.3-1.2-0.7-1.6-1.2c-0.4-0.5-0.7-1.1-1.1-1.9
	c-0.3-0.7-0.7-1.2-1.1-1.6c-0.4-0.4-1-0.6-1.6-0.6c-0.8,0-1.4,0.2-1.9,0.7c-0.5,0.5-0.8,1.1-0.8,1.7c0,1.1,0.4,2.2,1.2,3.3
	c0.8,1.1,1.8,2,3.1,2.7c1.8,0.9,4,1.4,6.7,1.4c2.2,0,4.2-0.3,5.8-1c1.7-0.7,2.9-1.6,3.8-2.9c0.9-1.2,1.3-2.6,1.3-4.1
	c0-1.3-0.3-2.4-0.8-3.3c-0.5-0.9-1.2-1.6-2.1-2.2c-0.9-0.6-1.9-1.1-3.2-1.4c-1.2-0.4-2.6-0.7-4.1-1.1c-1.2-0.3-2.1-0.5-2.6-0.6
	c-0.5-0.1-1-0.3-1.5-0.6c-0.5-0.2-0.8-0.5-1.1-0.8c-0.2-0.3-0.4-0.7-0.4-1.1c0-0.7,0.4-1.3,1.2-1.8c0.8-0.5,1.9-0.8,3.2-0.8
	c1.4,0,2.5,0.2,3.1,0.7c0.6,0.5,1.2,1.2,1.7,2.1c0.4,0.7,0.8,1.2,1.1,1.5c0.4,0.3,0.9,0.5,1.6,0.5c0.8,0,1.4-0.3,1.9-0.8
	c0.5-0.5,0.8-1.1,0.8-1.8c0-0.7-0.2-1.4-0.6-2.1c-0.4-0.7-1-1.4-1.8-2c-0.8-0.6-1.8-1.1-3.1-1.5c-1.2-0.4-2.7-0.6-4.3-0.6
	C17.9,7.2,16,7.5,14.5,8z"/>
</svg>
