<?xml version="1.0" encoding="utf-8"?>
<!-- Generator: Adobe Illustrator 14.0.0, SVG Export Plug-In . SVG Version: 6.00 Build 43363)  -->
<!DOCTYPE svg PUBLIC "-//W3C//DTD SVG 1.1//EN" "http://www.w3.org/Graphics/SVG/1.1/DTD/svg11.dtd">
<svg version="1.1" id="Layer_1" xmlns="http://www.w3.org/2000/svg" xmlns:xlink="http://www.w3.org/1999/xlink" x="0px" y="0px"
	 width="16px" height="16px" viewBox="0 0 16 16" enable-background="new 0 0 16 16" xml:space="preserve">
<path fill="#517BB5" d="M0,14c0,1.104,0.896,2,2,2h12c1.104,0,2-0.896,2-2V2c0-1.104-0.896-2-2-2H2C0.896,0,0,0.896,0,2V14z"/>
<path fill="#FFFFFF" d="M7.596,5.983h1.232V5.425V4.877V4.786c0-0.527,0.014-1.342,0.396-1.846c0.404-0.534,0.958-0.896,1.912-0.896
	c1.553,0,2.207,0.221,2.207,0.221L13.037,4.09c0,0-0.514-0.148-0.994-0.148c-0.479,0-0.906,0.171-0.906,0.65v0.194v0.639v0.559H13.1
	l-0.137,1.781h-1.826v6.191H8.828V7.765H7.596V5.983"/>
</svg>
