<?xml version="1.0" encoding="utf-8"?>
<!-- Generator: Adobe Illustrator 18.0.0, SVG Export Plug-In . SVG Version: 6.00 Build 0)  -->
<!DOCTYPE svg PUBLIC "-//W3C//DTD SVG 1.1//EN" "http://www.w3.org/Graphics/SVG/1.1/DTD/svg11.dtd">
<svg version="1.1" id="phone" xmlns="http://www.w3.org/2000/svg" xmlns:xlink="http://www.w3.org/1999/xlink" x="0px" y="0px"
	 viewBox="0 0 40 40" style="enable-background:new 0 0 40 40;" xml:space="preserve">
<style type="text/css">
	.Background{fill:#17A84A;}
	.st0{fill:#FFFFFF;}
</style>
<rect class="Background" width="40" height="40"/>
<g>
	<g>
		<path class="st0" d="M29.5,24.7c-0.4-0.4-0.9-0.6-1.4-0.6c-0.6,0-1.1,0.2-1.5,0.6L24,27.3l-0.7-0.4c-1.5-0.8-3.5-2-5.6-4.1
			c-2.1-2.2-3.3-4.2-4.1-5.7l-0.4-0.7l2.5-2.5c0.8-0.8,0.9-2.1,0.1-2.9l-4.6-4.6C10.9,6,10.4,5.8,9.8,5.8c-0.6,0-1.1,0.2-1.5,0.6
			L7.2,7.6L7.1,7.8C6.6,8.3,6.3,8.9,6,9.6c-0.2,0.6-0.4,1.2-0.5,1.8c-0.6,4.9,1.7,9.5,7.9,15.7c7.3,7.3,13.4,7.9,15.1,7.9
			c0.3,0,0.5,0,0.5,0c0.6-0.1,1.2-0.2,1.8-0.5c0.7-0.3,1.3-0.6,1.8-1l0.3-0.2l1.1-1c0.8-0.8,0.8-2.1,0.1-2.9L29.5,24.7z"/>
	</g>
</g>
</svg>
