<?xml version="1.0" encoding="utf-8"?>
<!-- Generator: Adobe Illustrator 18.0.0, SVG Export Plug-In . SVG Version: 6.00 Build 0)  -->
<!DOCTYPE svg PUBLIC "-//W3C//DTD SVG 1.1//EN" "http://www.w3.org/Graphics/SVG/1.1/DTD/svg11.dtd">
<svg version="1.1" id="picasa" xmlns="http://www.w3.org/2000/svg" xmlns:xlink="http://www.w3.org/1999/xlink" x="0px" y="0px"
	 viewBox="0 0 40 40" style="enable-background:new 0 0 40 40;" xml:space="preserve">
<style type="text/css">
	.Background{fill:#C8312B;}
	.st0{fill:#FFFFFF;}
</style>
<g>
	<rect class="Background" width="40" height="40"/>
	<path class="st0" d="M20.1,4.4c2.4,0,4.6,0.5,6.6,1.5v9.8L16,4.9C17.3,4.6,18.7,4.4,20.1,4.4z"/>
	<path class="st0" d="M4.8,19.7c0-6,3.5-11.2,8.5-13.7l3.9,3.9L5,22.1C4.9,21.3,4.8,20.5,4.8,19.7z"/>
	<path class="st0" d="M11.4,32.3C8.8,30.5,6.8,28,5.7,25l5.6-5.6V32.3z"/>
	<path class="st0" d="M20.1,35c-2.4,0-4.6-0.5-6.6-1.5v-5.1h19.2C29.9,32.4,25.3,35,20.1,35z"/>
	<path class="st0" d="M34,26.3h-5.1V7.1c4,2.8,6.6,7.4,6.6,12.6C35.5,22,34.9,24.3,34,26.3z"/>
</g>
</svg>
