<?xml version="1.0" encoding="utf-8"?>
<!-- Generator: Adobe Illustrator 18.0.0, SVG Export Plug-In . SVG Version: 6.00 Build 0)  -->
<!DOCTYPE svg PUBLIC "-//W3C//DTD SVG 1.1//EN" "http://www.w3.org/Graphics/SVG/1.1/DTD/svg11.dtd">
<svg version="1.1" id="pound" xmlns="http://www.w3.org/2000/svg" xmlns:xlink="http://www.w3.org/1999/xlink" x="0px" y="0px"
	 viewBox="0 0 40 40" style="enable-background:new 0 0 40 40;" xml:space="preserve">
<style type="text/css">
	.Background{fill:#17A84A;}
	.st0{fill-rule:evenodd;clip-rule:evenodd;fill:#FFFFFF;}
</style>
<rect class="Background" width="40" height="40"/>
<path class="st0" d="M11.8,35.6c-0.7-1-1.3-1.9-2-2.7c1.1-1.2,2.2-2.3,3.2-3.4c1.1-1.2,1.9-2.6,1.9-4.3c0-1.2-0.2-2.3-0.8-3.3
	c-0.1-0.2-0.4-0.3-0.7-0.3c-1.3,0-2.7,0-4.1,0c0-0.8,0-1.5,0-2.3c1.1,0,2.1,0,3.3,0c-0.5-0.9-0.9-1.7-1.3-2.5
	c-1.4-2.9-1.1-5.7,0.7-8.3C13.7,6,16,4.8,18.7,4.4c1.7-0.3,3.4-0.2,5.1,0.3c3.4,1,5.6,3.7,5.9,7.3c0.1,0.7,0.1,1.3,0.1,2
	c-1.3,0-2.5,0-3.6,0c-0.2-0.9-0.2-1.8-0.5-2.6c-0.6-2.4-2.4-3.8-4.9-3.8c-0.8,0-1.6,0-2.4,0.2c-3,0.7-4.7,3.5-3.8,6.4
	c0.5,1.6,1.4,3.1,2.2,4.7c0.1,0.1,0.4,0.2,0.6,0.2c1.8,0,3.6,0,5.4,0c0.2,0,0.5,0,0.8,0c0,0.8,0,1.5,0,2.3c-1.8,0-3.7,0-5.6,0
	c0.1,0.5,0.3,0.9,0.4,1.3c0.5,1.8,0.2,3.5-0.8,5c-0.8,1.2-1.7,2.3-2.6,3.4c-0.2,0.3-0.5,0.5-0.9,0.9c0.2-0.1,0.4-0.1,0.4-0.1
	c2.4-1.3,4.8-1.4,7.4-0.6c0.6,0.2,1.3,0.3,1.9,0.5c1.9,0.5,3.6,0.2,5.2-1c0.6,0.9,1.2,1.8,1.8,2.8c-1.8,1.8-3.9,2.7-6.4,2.3
	c-1.5-0.2-3-0.6-4.5-1.1C17.1,33.6,14.4,33.7,11.8,35.6z"/>
</svg>
