<?xml version="1.0" encoding="utf-8"?>
<!-- Generator: Adobe Illustrator 18.0.0, SVG Export Plug-In . SVG Version: 6.00 Build 0)  -->
<!DOCTYPE svg PUBLIC "-//W3C//DTD SVG 1.1//EN" "http://www.w3.org/Graphics/SVG/1.1/DTD/svg11.dtd">
<svg version="1.1" id="qr" xmlns="http://www.w3.org/2000/svg" xmlns:xlink="http://www.w3.org/1999/xlink" x="0px" y="0px"
	 viewBox="0 0 40 40" style="enable-background:new 0 0 40 40;" xml:space="preserve">
<style type="text/css">
	.Background_x0020_{fill:#0BAEDA;}
	.st0{fill:#FFFFFF;}
</style>
<rect class="Background_x0020_" width="40" height="40"/>
<g>
	<rect x="4.1" y="4.3" class="st0" width="1.3" height="8.9"/>
	<rect x="4.1" y="14.4" class="st0" width="1.3" height="2.5"/>
	<rect x="4.1" y="20.8" class="st0" width="1.3" height="2.5"/>
	<rect x="4.1" y="24.6" class="st0" width="1.3" height="1.3"/>
	<rect x="4.1" y="27.1" class="st0" width="1.3" height="8.9"/>
	<rect x="5.3" y="4.3" class="st0" width="1.3" height="1.3"/>
	<rect x="5.3" y="11.9" class="st0" width="1.3" height="1.3"/>
	<rect x="5.3" y="14.4" class="st0" width="1.3" height="5.1"/>
	<rect x="5.3" y="23.3" class="st0" width="1.3" height="2.5"/>
	<rect x="5.3" y="27.1" class="st0" width="1.3" height="1.3"/>
	<rect x="5.3" y="34.7" class="st0" width="1.3" height="1.3"/>
	<rect x="6.6" y="4.3" class="st0" width="1.3" height="1.3"/>
	<rect x="6.6" y="6.8" class="st0" width="1.3" height="3.8"/>
	<rect x="6.6" y="11.9" class="st0" width="1.3" height="1.3"/>
	<rect x="6.6" y="14.4" class="st0" width="1.3" height="8.9"/>
	<rect x="6.6" y="27.1" class="st0" width="1.3" height="1.3"/>
	<rect x="6.6" y="29.7" class="st0" width="1.3" height="3.8"/>
	<rect x="6.6" y="34.7" class="st0" width="1.3" height="1.3"/>
	<rect x="7.9" y="4.3" class="st0" width="1.3" height="1.3"/>
	<rect x="7.9" y="6.8" class="st0" width="1.3" height="3.8"/>
	<rect x="7.9" y="11.9" class="st0" width="1.3" height="1.3"/>
	<rect x="7.9" y="14.4" class="st0" width="1.3" height="2.5"/>
	<rect x="7.9" y="18.3" class="st0" width="1.3" height="1.3"/>
	<rect x="7.9" y="22.1" class="st0" width="1.3" height="2.5"/>
	<rect x="7.9" y="27.1" class="st0" width="1.3" height="1.3"/>
	<rect x="7.9" y="29.7" class="st0" width="1.3" height="3.8"/>
	<rect x="7.9" y="34.7" class="st0" width="1.3" height="1.3"/>
	<rect x="9.2" y="4.3" class="st0" width="1.3" height="1.3"/>
	<rect x="9.2" y="6.8" class="st0" width="1.3" height="3.8"/>
	<rect x="9.2" y="11.9" class="st0" width="1.3" height="1.3"/>
	<rect x="9.2" y="15.7" class="st0" width="1.3" height="2.5"/>
	<rect x="9.2" y="19.5" class="st0" width="1.3" height="5.1"/>
	<rect x="9.2" y="27.1" class="st0" width="1.3" height="1.3"/>
	<rect x="9.2" y="29.7" class="st0" width="1.3" height="3.8"/>
	<rect x="9.2" y="34.7" class="st0" width="1.3" height="1.3"/>
	<rect x="10.4" y="4.3" class="st0" width="1.3" height="1.3"/>
	<rect x="10.4" y="11.9" class="st0" width="1.3" height="1.3"/>
	<rect x="10.4" y="15.7" class="st0" width="1.3" height="1.3"/>
	<rect x="10.4" y="18.3" class="st0" width="1.3" height="3.8"/>
	<rect x="10.4" y="27.1" class="st0" width="1.3" height="1.3"/>
	<rect x="10.4" y="34.7" class="st0" width="1.3" height="1.3"/>
	<rect x="11.7" y="4.3" class="st0" width="1.3" height="8.9"/>
	<rect x="11.7" y="14.4" class="st0" width="1.3" height="1.3"/>
	<rect x="11.7" y="17" class="st0" width="1.3" height="1.3"/>
	<rect x="11.7" y="19.5" class="st0" width="1.3" height="1.3"/>
	<rect x="11.7" y="22.1" class="st0" width="1.3" height="1.3"/>
	<rect x="11.7" y="24.6" class="st0" width="1.3" height="1.3"/>
	<rect x="11.7" y="27.1" class="st0" width="1.3" height="8.9"/>
	<rect x="13" y="15.7" class="st0" width="1.3" height="6.3"/>
	<rect x="13" y="23.3" class="st0" width="1.3" height="1.3"/>
	<rect x="14.2" y="4.3" class="st0" width="1.3" height="1.3"/>
	<rect x="14.2" y="6.8" class="st0" width="1.3" height="3.8"/>
	<rect x="14.2" y="11.9" class="st0" width="1.3" height="1.3"/>
	<rect x="14.2" y="14.4" class="st0" width="1.3" height="5.1"/>
	<rect x="14.2" y="20.8" class="st0" width="1.3" height="2.5"/>
	<rect x="14.2" y="24.6" class="st0" width="1.3" height="2.5"/>
	<rect x="14.2" y="30.9" class="st0" width="1.3" height="5.1"/>
	<rect x="15.5" y="4.3" class="st0" width="1.3" height="1.3"/>
	<rect x="15.5" y="8.1" class="st0" width="1.3" height="3.8"/>
	<rect x="15.5" y="13.2" class="st0" width="1.3" height="1.3"/>
	<rect x="15.5" y="15.7" class="st0" width="1.3" height="1.3"/>
	<rect x="15.5" y="19.5" class="st0" width="1.3" height="2.5"/>
	<rect x="15.5" y="23.3" class="st0" width="1.3" height="2.5"/>
	<rect x="15.5" y="32.2" class="st0" width="1.3" height="1.3"/>
	<rect x="15.5" y="34.7" class="st0" width="1.3" height="1.3"/>
	<rect x="16.8" y="9.4" class="st0" width="1.3" height="1.3"/>
	<rect x="16.8" y="11.9" class="st0" width="1.3" height="1.3"/>
	<rect x="16.8" y="20.8" class="st0" width="1.3" height="2.5"/>
	<rect x="16.8" y="25.9" class="st0" width="1.3" height="5.1"/>
	<rect x="16.8" y="32.2" class="st0" width="1.3" height="2.5"/>
	<rect x="18" y="6.8" class="st0" width="1.3" height="3.8"/>
	<rect x="18" y="13.2" class="st0" width="1.3" height="1.3"/>
	<rect x="18" y="18.3" class="st0" width="1.3" height="3.8"/>
	<rect x="18" y="24.6" class="st0" width="1.3" height="1.3"/>
	<rect x="18" y="27.1" class="st0" width="1.3" height="1.3"/>
	<rect x="18" y="29.7" class="st0" width="1.3" height="1.3"/>
	<rect x="18" y="32.2" class="st0" width="1.3" height="1.3"/>
	<rect x="19.3" y="6.8" class="st0" width="1.3" height="1.3"/>
	<rect x="19.3" y="10.6" class="st0" width="1.3" height="2.5"/>
	<rect x="19.3" y="18.3" class="st0" width="1.3" height="1.3"/>
	<rect x="19.3" y="22.1" class="st0" width="1.3" height="2.5"/>
	<rect x="19.3" y="25.9" class="st0" width="1.3" height="7.6"/>
	<rect x="19.3" y="34.7" class="st0" width="1.3" height="1.3"/>
	<rect x="20.6" y="4.3" class="st0" width="1.3" height="1.3"/>
	<rect x="20.6" y="6.8" class="st0" width="1.3" height="1.3"/>
	<rect x="20.6" y="9.4" class="st0" width="1.3" height="1.3"/>
	<rect x="20.6" y="13.2" class="st0" width="1.3" height="2.5"/>
	<rect x="20.6" y="18.3" class="st0" width="1.3" height="1.3"/>
	<rect x="20.6" y="20.8" class="st0" width="1.3" height="1.3"/>
	<rect x="20.6" y="23.3" class="st0" width="1.3" height="1.3"/>
	<rect x="20.6" y="25.9" class="st0" width="1.3" height="1.3"/>
	<rect x="20.6" y="29.7" class="st0" width="1.3" height="3.8"/>
	<rect x="21.9" y="6.8" class="st0" width="1.3" height="1.3"/>
	<rect x="21.9" y="9.4" class="st0" width="1.3" height="6.3"/>
	<rect x="21.9" y="17" class="st0" width="1.3" height="2.5"/>
	<rect x="21.9" y="22.1" class="st0" width="1.3" height="1.3"/>
	<rect x="21.9" y="30.9" class="st0" width="1.3" height="1.3"/>
	<rect x="21.9" y="34.7" class="st0" width="1.3" height="1.3"/>
	<rect x="23.1" y="6.8" class="st0" width="1.3" height="1.3"/>
	<rect x="23.1" y="9.4" class="st0" width="1.3" height="1.3"/>
	<rect x="23.1" y="13.2" class="st0" width="1.3" height="1.3"/>
	<rect x="23.1" y="18.3" class="st0" width="1.3" height="1.3"/>
	<rect x="23.1" y="20.8" class="st0" width="1.3" height="1.3"/>
	<rect x="23.1" y="23.3" class="st0" width="1.3" height="3.8"/>
	<rect x="23.1" y="28.4" class="st0" width="1.3" height="1.3"/>
	<rect x="24.4" y="4.3" class="st0" width="1.3" height="2.5"/>
	<rect x="24.4" y="9.4" class="st0" width="1.3" height="1.3"/>
	<rect x="24.4" y="11.9" class="st0" width="1.3" height="1.3"/>
	<rect x="24.4" y="14.4" class="st0" width="1.3" height="2.5"/>
	<rect x="24.4" y="22.1" class="st0" width="1.3" height="1.3"/>
	<rect x="24.4" y="24.6" class="st0" width="1.3" height="6.3"/>
	<rect x="24.4" y="32.2" class="st0" width="1.3" height="1.3"/>
	<rect x="25.7" y="14.4" class="st0" width="1.3" height="1.3"/>
	<rect x="25.7" y="18.3" class="st0" width="1.3" height="2.5"/>
	<rect x="25.7" y="22.1" class="st0" width="1.3" height="3.8"/>
	<rect x="25.7" y="29.7" class="st0" width="1.3" height="3.8"/>
	<rect x="26.9" y="4.3" class="st0" width="1.3" height="8.9"/>
	<rect x="26.9" y="19.5" class="st0" width="1.3" height="2.5"/>
	<rect x="26.9" y="24.6" class="st0" width="1.3" height="1.3"/>
	<rect x="26.9" y="27.1" class="st0" width="1.3" height="1.3"/>
	<rect x="26.9" y="29.7" class="st0" width="1.3" height="3.8"/>
	<rect x="28.2" y="4.3" class="st0" width="1.3" height="1.3"/>
	<rect x="28.2" y="11.9" class="st0" width="1.3" height="1.3"/>
	<rect x="28.2" y="15.7" class="st0" width="1.3" height="3.8"/>
	<rect x="28.2" y="20.8" class="st0" width="1.3" height="5.1"/>
	<rect x="28.2" y="29.7" class="st0" width="1.3" height="3.8"/>
	<rect x="28.2" y="34.7" class="st0" width="1.3" height="1.3"/>
	<rect x="29.5" y="4.3" class="st0" width="1.3" height="1.3"/>
	<rect x="29.5" y="6.8" class="st0" width="1.3" height="3.8"/>
	<rect x="29.5" y="11.9" class="st0" width="1.3" height="1.3"/>
	<rect x="29.5" y="14.4" class="st0" width="1.3" height="1.3"/>
	<rect x="29.5" y="17" class="st0" width="1.3" height="6.3"/>
	<rect x="29.5" y="24.6" class="st0" width="1.3" height="11.4"/>
	<rect x="30.7" y="4.3" class="st0" width="1.3" height="1.3"/>
	<rect x="30.7" y="6.8" class="st0" width="1.3" height="3.8"/>
	<rect x="30.7" y="11.9" class="st0" width="1.3" height="1.3"/>
	<rect x="30.7" y="14.4" class="st0" width="1.3" height="1.3"/>
	<rect x="30.7" y="18.3" class="st0" width="1.3" height="1.3"/>
	<rect x="30.7" y="23.3" class="st0" width="1.3" height="2.5"/>
	<rect x="30.7" y="27.1" class="st0" width="1.3" height="1.3"/>
	<rect x="30.7" y="32.2" class="st0" width="1.3" height="1.3"/>
	<rect x="30.7" y="34.7" class="st0" width="1.3" height="1.3"/>
	<rect x="32" y="4.3" class="st0" width="1.3" height="1.3"/>
	<rect x="32" y="6.8" class="st0" width="1.3" height="3.8"/>
	<rect x="32" y="11.9" class="st0" width="1.3" height="1.3"/>
	<rect x="32" y="14.4" class="st0" width="1.3" height="1.3"/>
	<rect x="32" y="18.3" class="st0" width="1.3" height="2.5"/>
	<rect x="32" y="22.1" class="st0" width="1.3" height="1.3"/>
	<rect x="32" y="24.6" class="st0" width="1.3" height="1.3"/>
	<rect x="32" y="27.1" class="st0" width="1.3" height="1.3"/>
	<rect x="32" y="30.9" class="st0" width="1.3" height="5.1"/>
	<rect x="33.3" y="4.3" class="st0" width="1.3" height="1.3"/>
	<rect x="33.3" y="11.9" class="st0" width="1.3" height="1.3"/>
	<rect x="33.3" y="15.7" class="st0" width="1.3" height="1.3"/>
	<rect x="33.3" y="19.5" class="st0" width="1.3" height="1.3"/>
	<rect x="33.3" y="22.1" class="st0" width="1.3" height="1.3"/>
	<rect x="33.3" y="24.6" class="st0" width="1.3" height="1.3"/>
	<rect x="33.3" y="27.1" class="st0" width="1.3" height="2.5"/>
	<rect x="33.3" y="30.9" class="st0" width="1.3" height="2.5"/>
	<rect x="33.3" y="34.7" class="st0" width="1.3" height="1.3"/>
	<rect x="34.6" y="4.3" class="st0" width="1.3" height="8.9"/>
	<rect x="34.6" y="14.4" class="st0" width="1.3" height="1.3"/>
	<rect x="34.6" y="19.5" class="st0" width="1.3" height="2.5"/>
	<rect x="34.6" y="23.3" class="st0" width="1.3" height="6.3"/>
	<rect x="34.6" y="30.9" class="st0" width="1.3" height="1.3"/>
	<rect x="34.6" y="34.7" class="st0" width="1.3" height="1.3"/>
</g>
</svg>
