<?xml version="1.0" encoding="utf-8"?>
<!-- Generator: Adobe Illustrator 18.0.0, SVG Export Plug-In . SVG Version: 6.00 Build 0)  -->
<!DOCTYPE svg PUBLIC "-//W3C//DTD SVG 1.1//EN" "http://www.w3.org/Graphics/SVG/1.1/DTD/svg11.dtd">
<svg version="1.1" id="rss" xmlns="http://www.w3.org/2000/svg" xmlns:xlink="http://www.w3.org/1999/xlink" x="0px" y="0px"
	 viewBox="0 0 40 40" style="enable-background:new 0 0 40 40;" xml:space="preserve">
<style type="text/css">
	.Background{fill:#F99F1B;}
	.st0{fill:#FFFFFF;}
</style>
<rect class="Background" width="40" height="40"/>
<g id="c40_rss">
	<path class="st0" d="M11.8,25c-2,0-3.6,1.6-3.6,3.6c0,2,1.6,3.6,3.6,3.6c2,0,3.6-1.6,3.6-3.6C15.4,26.6,13.8,25,11.8,25z"/>
	<path class="st0" d="M8.6,15.9c-0.2,0-0.4,0.2-0.4,0.4v4.6c0,0.2,0.2,0.4,0.4,0.4c5.9,0,10.7,4.8,10.7,10.7c0,0.2,0.2,0.4,0.4,0.4
		h4.6h0c0.2,0,0.4-0.2,0.4-0.4l0-0.1C24.5,23,17.4,15.9,8.6,15.9z"/>
	<path class="st0" d="M32.5,31.8C32.5,18.6,21.8,7.9,8.6,7.9c-0.2,0-0.4,0.2-0.4,0.4V13c0,0.2,0.2,0.4,0.4,0.4
		c10.2,0,18.5,8.3,18.5,18.5c0,0.2,0.2,0.4,0.4,0.4h4.7h0c0.2,0,0.4-0.2,0.4-0.4L32.5,31.8z"/>
</g>
</svg>
