<?xml version="1.0" encoding="utf-8"?>
<!-- Generator: Adobe Illustrator 18.0.0, SVG Export Plug-In . SVG Version: 6.00 Build 0)  -->
<!DOCTYPE svg PUBLIC "-//W3C//DTD SVG 1.1//EN" "http://www.w3.org/Graphics/SVG/1.1/DTD/svg11.dtd">
<svg version="1.1" id="scribd" xmlns="http://www.w3.org/2000/svg" xmlns:xlink="http://www.w3.org/1999/xlink" x="0px" y="0px"
	 viewBox="0 0 40 40" style="enable-background:new 0 0 40 40;" xml:space="preserve">
<style type="text/css">
	.Background{fill:#0BAEDA;}
	.st0{fill:#FFFFFF;}
</style>
<rect class="Background" width="40" height="40"/>
<path class="st0" d="M14,29.2c0,0,1.2-3.1-1.9-4.6c0,0-3.6-1.5-4.9,2.9c0,0-0.8,3.1,3.3,5.9c0,0,4.8,2.9,10.6,1.8
	c0,0,2.4-0.6,3.4-1.3c0,0-2.5-5.6,4.1-8.2c0,0,0.5-4.9-6.7-7.7c0,0-8.3-1.8-7.6-5.5c0,0,0.5-2.5,3.6-2.6c0,0,2.6-0.2,3.2,0.4
	c0,0,0.2,0.3,0.1,0.7c0,0-0.1,3.9,3.7,4.1c0,0,3.3-0.1,3.3-3.4c0,0,0.8-3.4-4.3-6.1c0,0-6-2.5-11.8,0.6c0,0-3.9,2.6-3.8,6.1
	c0,0-0.6,4.6,2.3,6.8c0,0,3,2.6,5.8,3.3c0,0,4,1.3,5.8,2.7c0,0,1.3,1.4-0.4,3.3C21.6,28.4,18.9,31.9,14,29.2z"/>
<circle class="st0" cx="29.1" cy="31.1" r="3.5"/>
</svg>
