<?xml version="1.0" encoding="utf-8"?>
<!-- Generator: Adobe Illustrator 18.0.0, SVG Export Plug-In . SVG Version: 6.00 Build 0)  -->
<!DOCTYPE svg PUBLIC "-//W3C//DTD SVG 1.1//EN" "http://www.w3.org/Graphics/SVG/1.1/DTD/svg11.dtd">
<svg version="1.1" id="skype" xmlns="http://www.w3.org/2000/svg" xmlns:xlink="http://www.w3.org/1999/xlink" x="0px" y="0px"
	 viewBox="0 0 40 40" style="enable-background:new 0 0 40 40;" xml:space="preserve">
<style type="text/css">
	.Background{fill:#33A7DF;}
	.st0{fill:#FFFFFF;}
	.st1{fill:#33A7DF;}
</style>
<rect class="Background" width="40" height="40"/>
<path class="st0" d="M34.8,23.5c0.2-1,0.4-2.1,0.4-3.2c0-8.4-6.8-15.1-15.2-15.1c-0.9,0-1.8,0.1-2.6,0.2c-1.4-0.9-3-1.3-4.7-1.3
	c-4.9,0-8.8,3.9-8.8,8.8c0,1.6,0.4,3.1,1.2,4.4c-0.2,1-0.3,2-0.3,3c0,8.4,6.8,15.1,15.2,15.1c1,0,1.9-0.1,2.8-0.3
	c1.2,0.7,2.7,1,4.2,1c4.9,0,8.8-3.9,8.8-8.8C35.7,26,35.4,24.7,34.8,23.5z"/>
<path class="st1" d="M15,9.9L15,9.9c-1.3,0.5-2.4,1.2-3.1,2.1c-0.7,0.9-1.1,2-1.1,3.2c0,1.2,0.3,2.3,1,3.2c0.7,0.8,1.6,1.5,2.7,2
	c1.1,0.5,2.5,0.9,4.2,1.2c1.2,0.3,2.2,0.5,2.9,0.7c0.7,0.2,1.3,0.5,1.7,0.9c0.4,0.4,0.6,0.9,0.6,1.5c0,0.8-0.4,1.4-1.2,2
	c-0.8,0.5-1.9,0.8-3.2,0.8c-1,0-1.7-0.1-2.3-0.4c-0.6-0.3-1-0.6-1.3-1c-0.3-0.4-0.6-1-0.9-1.6c-0.3-0.6-0.6-1-0.9-1.3
	c-0.4-0.3-0.9-0.5-1.4-0.5c-0.7,0-1.2,0.2-1.7,0.6c-0.4,0.4-0.7,0.9-0.7,1.5c0,0.9,0.3,1.9,1,2.8c0.7,1,1.5,1.7,2.6,2.3
	c1.5,0.8,3.4,1.2,5.7,1.2c1.9,0,3.6-0.3,5-0.9c1.4-0.6,2.5-1.4,3.2-2.4c0.7-1,1.1-2.2,1.1-3.5c0-1.1-0.2-2-0.6-2.8
	c-0.4-0.8-1-1.4-1.8-1.9c-0.7-0.5-1.7-0.9-2.7-1.2c-1-0.3-2.2-0.6-3.5-0.9c-1-0.2-1.8-0.4-2.2-0.5c-0.4-0.1-0.9-0.3-1.3-0.5
	c-0.4-0.2-0.7-0.4-0.9-0.7c-0.2-0.3-0.3-0.6-0.3-0.9c0-0.6,0.3-1.1,1-1.5c0.7-0.4,1.6-0.7,2.7-0.7c1.2,0,2.1,0.2,2.6,0.6
	c0.5,0.4,1,1,1.4,1.7c0.3,0.6,0.6,1,0.9,1.3c0.3,0.3,0.8,0.4,1.4,0.4c0.6,0,1.2-0.2,1.6-0.7c0.4-0.4,0.6-1,0.6-1.5
	c0-0.6-0.2-1.2-0.5-1.8c-0.3-0.6-0.8-1.2-1.5-1.7c-0.7-0.5-1.6-1-2.6-1.3c-1-0.3-2.3-0.5-3.7-0.5C17.9,9.2,16.4,9.4,15,9.9z"/>
</svg>
