<?xml version="1.0" encoding="utf-8"?>
<!-- Generator: Adobe Illustrator 18.0.0, SVG Export Plug-In . SVG Version: 6.00 Build 0)  -->
<!DOCTYPE svg PUBLIC "-//W3C//DTD SVG 1.1//EN" "http://www.w3.org/Graphics/SVG/1.1/DTD/svg11.dtd">
<svg version="1.1" id="slideshare" xmlns="http://www.w3.org/2000/svg" xmlns:xlink="http://www.w3.org/1999/xlink" x="0px" y="0px"
	 viewBox="0 0 40 40" style="enable-background:new 0 0 40 40;" xml:space="preserve">
<style type="text/css">
	.Background{fill-rule:evenodd;clip-rule:evenodd;fill:#EE8122;}
	.st0{fill:#FFFFFF;}
</style>
<rect x="0" y="0" class="Background" width="40" height="40"/>
<g>
	<path class="st0" d="M26.6,22.8C26.6,22.8,26.6,22.8,26.6,22.8C26.6,22.8,26.6,22.8,26.6,22.8C26.6,22.8,26.6,22.8,26.6,22.8
		C26.6,22.8,26.6,22.8,26.6,22.8C26.6,22.8,26.6,22.8,26.6,22.8z"/>
	<path class="st0" d="M34.3,19.4c-0.1,0.1-0.2,0.2-0.4,0.3V7.3c0-1.7-1.3-3.1-2.9-3.1H8.8c-1.6,0-2.9,1.4-2.9,3.1v12.4
		c-0.1-0.1-0.3-0.2-0.4-0.3c-1-0.7-1.6,0.2-1,1.1c1.1,1.4,3.3,3.1,6.6,4.5c-3.5,11.9,8.6,13.8,8.4,7.7c0,0.1,0-3.5,0-6
		c0.3,0.1,0.6,0.1,0.9,0.2c0,2.5,0,5.9,0,5.8c-0.2,6.1,11.9,4.2,8.4-7.7c3.3-1.4,5.5-3.1,6.6-4.5C35.9,19.6,35.3,18.7,34.3,19.4z
		 M7.6,20.1V8.7c0-2.2,0.6-2.8,2.5-2.8h19.8c1.9,0,2.5,0.8,2.5,2.8v11.9c-4.3,2.3-8,1.9-10,1.9c-1.5-0.1-2,0.6-2.1,1.5
		c-0.4-0.3-0.7-0.6-1.1-0.9c0,0,0,0,0,0.1c-0.3-0.5-0.9-0.7-1.9-0.7c-2,0.1-5.6,0.5-9.8-1.8V20.1z"/>
	<path class="st0" d="M19.5,17.4c0-1.9-1.6-3.5-3.7-3.5c-2,0-3.7,1.6-3.7,3.5c0,1.9,1.6,3.5,3.7,3.5C17.8,20.9,19.5,19.4,19.5,17.4z
		"/>
	<path class="st0" d="M24.6,20.9c2,0,3.7-1.6,3.7-3.5c0-1.9-1.6-3.5-3.7-3.5s-3.7,1.6-3.7,3.5C20.9,19.4,22.6,20.9,24.6,20.9z"/>
</g>
</svg>
