<?xml version="1.0" encoding="utf-8"?>
<!-- Generator: Adobe Illustrator 18.0.0, SVG Export Plug-In . SVG Version: 6.00 Build 0)  -->
<!DOCTYPE svg PUBLIC "-//W3C//DTD SVG 1.1//EN" "http://www.w3.org/Graphics/SVG/1.1/DTD/svg11.dtd">
<svg version="1.1" id="socialshare" xmlns="http://www.w3.org/2000/svg" xmlns:xlink="http://www.w3.org/1999/xlink" x="0px"
	 y="0px" viewBox="0 0 40 40" style="enable-background:new 0 0 40 40;" xml:space="preserve">
<style type="text/css">
	.Background{fill:#11314B;}
	.st0{fill:#FFFFFF;}
</style>
<rect x="0" y="0" class="Background" width="40" height="40"/>
<g>
	<path class="st0" d="M9.4,33.4l-4.1-5c0,0-2.1-2.1,0-4.4c2.1-2.3,9.2-10,9.2-10s1.6-2,3.6,0c0,0-2,0.7-2,1.2
		c0,0.5-8.9,10.1-8.9,10.1s-0.9,0.4,0,1.2c0.9,0.9,4,4.6,4,4.6s0.7,0.4,1.2,0.2c0.5-0.2,9.6-10,9.6-10s0.9-0.9,0-1.8
		c-0.9-0.9-2.7-2.5-2.7-2.5s0.5-1.8,1.6-1.3l3,2.3c0,0,2.7,2.7,0,5c-2.7,2.3-10.1,10.1-10.1,10.1S11.3,35.8,9.4,33.4z"/>
	<path class="st0" d="M30.6,6.1l4.1,5c0,0,2.1,2.1,0,4.4c-2.1,2.3-9.2,10-9.2,10s-1.6,1.9-3.6,0c0,0,2-0.7,2-1.2
		c0-0.5,8.9-10.1,8.9-10.1s0.9-0.4,0-1.2c-0.9-0.9-4-4.6-4-4.6s-0.7-0.4-1.2-0.2c-0.5,0.2-9.6,10-9.6,10s-0.9,0.9,0,1.8
		c0.9,0.9,2.7,2.5,2.7,2.5s-0.4,1.7-1.4,1.2L16,21.2c0,0-2.7-2.7,0-5c2.7-2.3,10.1-10.1,10.1-10.1S28.7,3.8,30.6,6.1z"/>
</g>
</svg>
