<?xml version="1.0" encoding="utf-8"?>
<!-- Generator: Adobe Illustrator 18.0.0, SVG Export Plug-In . SVG Version: 6.00 Build 0)  -->
<!DOCTYPE svg PUBLIC "-//W3C//DTD SVG 1.1//EN" "http://www.w3.org/Graphics/SVG/1.1/DTD/svg11.dtd">
<svg version="1.1" id="store_x5F_locator" xmlns="http://www.w3.org/2000/svg" xmlns:xlink="http://www.w3.org/1999/xlink" x="0px"
	 y="0px" viewBox="0 0 40 40" style="enable-background:new 0 0 40 40;" xml:space="preserve">
<style type="text/css">
	.Background{fill:#EE8122;}
	.st0{fill:#FFFFFF;}
</style>
<rect class="Background" width="40" height="40"/>
<path class="st0" d="M35.1,31.9L24.7,21.8c-0.2-0.2,1.4-4.3,1.4-6.7c0-6.1-4.9-11-11-11c-6.1,0-11,4.9-11,11c0,6.1,4.9,11,11,11
	c2.3,0,6.4-1.5,6.6-1.3L32.1,35c0.4,0.4,1.1,0.4,1.5,0l1.5-1.6C35.6,33,35.6,32.3,35.1,31.9z M6.1,15.1c0-5,4.1-9.1,9.1-9.1
	s9.1,4.1,9.1,9.1s-4.1,9.1-9.1,9.1S6.1,20.1,6.1,15.1z"/>
</svg>
