<?xml version="1.0" encoding="utf-8"?>
<!-- Generator: Adobe Illustrator 18.0.0, SVG Export Plug-In . SVG Version: 6.00 Build 0)  -->
<!DOCTYPE svg PUBLIC "-//W3C//DTD SVG 1.1//EN" "http://www.w3.org/Graphics/SVG/1.1/DTD/svg11.dtd">
<svg version="1.1" id="t_x5F_twitter" xmlns="http://www.w3.org/2000/svg" xmlns:xlink="http://www.w3.org/1999/xlink" x="0px"
	 y="0px" viewBox="0 0 16 16" style="enable-background:new 0 0 16 16;" xml:space="preserve">
<style type="text/css">
	.st0{fill:#FFFFFF;}
</style>
<path class="st0" d="M9.7,4.4c0.2,0.1,0.5,0.2,0.7,0.4l0,0l3-1.1l0,0c0.2,0.3,0.5,0.6,0.6,0.9c0.2,0.3,0.4,0.7,0.5,1l0,0l-2.5,2.1
	l0,0c0,0.3,0,0.5,0,0.8l0,0l2.5,2.1l0,0c-0.1,0.3-0.3,0.7-0.5,1c-0.2,0.3-0.4,0.6-0.6,0.9l0,0l-3-1.1l0,0c-0.2,0.2-0.5,0.3-0.7,0.4
	l0,0l-0.6,3.2v0c-0.4,0.1-0.7,0.1-1.1,0.1c-0.4,0-0.8,0-1.1-0.1l0,0l-0.6-3.2l0,0c-0.2-0.1-0.5-0.2-0.7-0.4l0,0l-3,1.1l0,0
	c-0.2-0.3-0.5-0.6-0.6-0.9c-0.2-0.3-0.4-0.7-0.5-1v0l2.5-2.1l0,0c0-0.3,0-0.5,0-0.8l0,0L1.5,5.7l0,0c0.1-0.3,0.3-0.7,0.5-1
	C2.1,4.3,2.4,4,2.6,3.7l0,0l3,1.1l0,0c0.2-0.2,0.5-0.3,0.7-0.4l0,0l0.6-3.2v0C7.2,1.2,7.6,1.2,8,1.2c0.4,0,0.8,0,1.1,0.1l0,0
	L9.7,4.4L9.7,4.4z M8,10c1,0,1.9-0.8,1.9-1.9c0-1-0.8-1.9-1.9-1.9S6.1,7.2,6.1,8.2C6.1,9.2,7,10,8,10z"/>
</svg>
