<?xml version="1.0" encoding="utf-8"?>
<!-- Generator: Adobe Illustrator 18.0.0, SVG Export Plug-In . SVG Version: 6.00 Build 0)  -->
<!DOCTYPE svg PUBLIC "-//W3C//DTD SVG 1.1//EN" "http://www.w3.org/Graphics/SVG/1.1/DTD/svg11.dtd">
<svg version="1.1" id="google_x5F_map" xmlns="http://www.w3.org/2000/svg" xmlns:xlink="http://www.w3.org/1999/xlink" x="0px"
	 y="0px" viewBox="0 0 40 40" style="enable-background:new 0 0 40 40;" xml:space="preserve">
<style type="text/css">
	.Background{fill:#922F26;}
	.st0{fill-rule:evenodd;clip-rule:evenodd;fill:#FFFFFF;}
</style>
<rect class="Background" width="40" height="40"/>
<path class="st0" d="M28.7,13.3c0.1,2.2-0.8,4-1.8,5.8c-1.3,2.3-2.7,4.5-3.9,6.9c-1.3,2.7-2.1,5.6-2.3,8.6c0,0.4-0.1,0.9-0.7,0.9
	c-0.6,0-0.7-0.4-0.7-0.9c-0.4-4.8-2.2-9.1-4.8-13.2c-0.8-1.3-1.6-2.6-2.3-4c-2.3-4.6-0.6-9.9,3.9-12.1C22.1,2.4,28.9,6.9,28.7,13.3z
	 M19.9,9.5c-2.2,0-3.8,1.6-3.8,3.8c0,2.2,1.7,3.8,3.9,3.7c2.1,0,3.7-1.7,3.7-3.7C23.7,11,22.1,9.4,19.9,9.5z"/>
</svg>
