<?xml version="1.0" encoding="utf-8"?>
<!-- Generator: Adobe Illustrator 18.0.0, SVG Export Plug-In . SVG Version: 6.00 Build 0)  -->
<!DOCTYPE svg PUBLIC "-//W3C//DTD SVG 1.1//EN" "http://www.w3.org/Graphics/SVG/1.1/DTD/svg11.dtd">
<svg version="1.1" id="t_x5F_twitter" xmlns="http://www.w3.org/2000/svg" xmlns:xlink="http://www.w3.org/1999/xlink" x="0px"
	 y="0px" viewBox="0 0 16 16" style="enable-background:new 0 0 16 16;" xml:space="preserve">
<style type="text/css">
	.st0{fill:#FFFFFF;}
</style>
<path class="st0" d="M7.9,5.9C7.5,4.2,8.6,3,9.6,2.7c1-0.3,2.2-0.1,3,0.7c0,0,1.1-0.3,1.8-0.7c0,0-0.4,1.1-1.2,1.5
	c0,0,0.7,0,1.6-0.4c0,0-0.5,0.8-1.4,1.4c0,7.2-7.2,10.1-11.9,6.9c0,0,2.2,0.3,4-1.1c0,0-2,0-2.6-1.9c0,0,0.8,0.1,1.3-0.1
	c0,0-2.1-0.4-2.2-2.7c0,0,0.4,0.4,1.3,0.4c0,0-2-1.2-0.9-3.7C2.2,3,4.4,6.1,7.9,5.9z"/>
</svg>
